%FSTAX23Y23*%
%MOMM*%
%SFA1B1*%

%IPPOS*%
%AMD23*
4,1,8,0.599440,1.899920,-0.599440,1.899920,-2.499360,0.000000,-2.499360,0.000000,-0.599440,-1.899920,0.599440,-1.899920,2.499360,0.000000,2.499360,0.000000,0.599440,1.899920,0.0*
1,1,3.800000,0.599440,0.000000*
1,1,3.800000,-0.599440,0.000000*
1,1,3.800000,-0.599440,0.000000*
1,1,3.800000,0.599440,0.000000*
%
%AMD25*
4,1,8,0.381000,0.762000,-0.381000,0.762000,-0.762000,0.381000,-0.762000,-0.381000,-0.381000,-0.762000,0.381000,-0.762000,0.762000,-0.381000,0.762000,0.381000,0.381000,0.762000,0.0*
1,1,0.762000,0.381000,0.381000*
1,1,0.762000,-0.381000,0.381000*
1,1,0.762000,-0.381000,-0.381000*
1,1,0.762000,0.381000,-0.381000*
%
%AMD26*
4,1,8,0.500380,1.000760,-0.500380,1.000760,-1.000760,0.500380,-1.000760,-0.500380,-0.500380,-1.000760,0.500380,-1.000760,1.000760,-0.500380,1.000760,0.500380,0.500380,1.000760,0.0*
1,1,1.000000,0.500380,0.500380*
1,1,1.000000,-0.500380,0.500380*
1,1,1.000000,-0.500380,-0.500380*
1,1,1.000000,0.500380,-0.500380*
%
%ADD10C,0.299999*%
%ADD17C,0.399999*%
%ADD18C,0.200000*%
%ADD19C,0.499999*%
%ADD20R,1.999996X1.999996*%
%ADD21C,1.999996*%
%ADD22C,2.999994*%
G04~CAMADD=23~8~0.0~0.0~1968.5~1496.1~748.0~0.0~15~0.0~0.0~0.0~0.0~0~0.0~0.0~0.0~0.0~0~0.0~0.0~0.0~0.0~1968.5~1496.1*
%ADD23D23*%
%ADD24C,1.523997*%
G04~CAMADD=25~8~0.0~0.0~600.0~600.0~150.0~0.0~15~0.0~0.0~0.0~0.0~0~0.0~0.0~0.0~0.0~0~0.0~0.0~0.0~0.0~600.0~600.0*
%ADD25D25*%
G04~CAMADD=26~8~0.0~0.0~787.4~787.4~196.9~0.0~15~0.0~0.0~0.0~0.0~0~0.0~0.0~0.0~0.0~0~0.0~0.0~0.0~0.0~787.4~787.4*
%ADD26D26*%
%ADD27C,1.523997*%
%ADD28C,1.269997*%
%LNecu_freio_2024_equipe_imperador_copper_signal_bot-1*%
%LPD*%
G36*
X129286Y52451D02*
X108204D01*
Y57555*
X108313Y57618*
X109605Y56879*
X109602Y56869*
Y56668*
X109654Y56475*
X109754Y56302*
X109896Y5616*
X110069Y5606*
X110262Y56008*
X110463*
X110656Y5606*
X110829Y5616*
X110971Y56302*
X111071Y56475*
X111122Y56668*
Y56869*
X111071Y57062*
X110971Y57235*
X110829Y57377*
X110656Y57477*
X110463Y57528*
X110262*
X110069Y57477*
X109896Y57377*
X109884Y57365*
X108204Y58327*
Y64135*
X79756*
X79629Y64008*
Y52451*
X68072*
Y121285*
X129286*
Y52451*
G37*
%LNecu_freio_2024_equipe_imperador_copper_signal_bot-2*%
%LPC*%
G36*
X106938Y116683D02*
Y115701D01*
X10792*
X107857Y115936*
X107692Y116221*
X107458Y116455*
X107173Y11662*
X106938Y116683*
G37*
G36*
X106438D02*
X106204Y11662D01*
X105919Y116455*
X105685Y116221*
X10552Y115936*
X105457Y115701*
X106438*
Y116683*
G37*
G36*
X126046Y119526D02*
X125667D01*
X125295Y119452*
X124945Y119307*
X124629Y119097*
X124361Y118829*
X124151Y118513*
X124005Y118163*
X123931Y117791*
Y117412*
X124005Y11704*
X124151Y11669*
X124361Y116374*
X124629Y116106*
X124945Y115896*
X125295Y11575*
X125667Y115676*
X126046*
X126418Y11575*
X126768Y115896*
X127084Y116106*
X127352Y116374*
X127562Y11669*
X127707Y11704*
X127781Y117412*
Y117791*
X127707Y118163*
X127562Y118513*
X127352Y118829*
X127084Y119097*
X126768Y119307*
X126418Y119452*
X126046Y119526*
G37*
G36*
X71817D02*
X71438D01*
X71066Y119452*
X70716Y119307*
X704Y119097*
X70132Y118829*
X69922Y118513*
X69776Y118163*
X69702Y117791*
Y117412*
X69776Y11704*
X69922Y11669*
X70132Y116374*
X704Y116106*
X70716Y115896*
X71066Y11575*
X71438Y115676*
X71817*
X72189Y11575*
X72539Y115896*
X72855Y116106*
X73123Y116374*
X73333Y11669*
X73478Y11704*
X73552Y117412*
Y117791*
X73478Y118163*
X73333Y118513*
X73123Y118829*
X72855Y119097*
X72539Y119307*
X72189Y119452*
X71817Y119526*
G37*
G36*
X115553Y116589D02*
X114553D01*
X114309Y11654*
X114102Y116402*
X113964Y116195*
X113915Y115951*
Y114951*
X113964Y114708*
X114102Y114501*
X114309Y114363*
X114553Y114314*
X115553*
X115796Y114363*
X116003Y114501*
X116141Y114708*
X11619Y114951*
Y115951*
X116141Y116195*
X116003Y116402*
X115796Y11654*
X115553Y116589*
G37*
G36*
X102988D02*
X101988D01*
X101745Y11654*
X101538Y116402*
X1014Y116195*
X101351Y115951*
Y114951*
X1014Y114708*
X101538Y114501*
X101745Y114363*
X101988Y114314*
X102988*
X103232Y114363*
X103439Y114501*
X103577Y114708*
X103626Y114951*
Y115951*
X103577Y116195*
X103439Y116402*
X103232Y11654*
X102988Y116589*
G37*
G36*
X10792Y115201D02*
X106938D01*
Y11422*
X107173Y114283*
X107458Y114448*
X107692Y114682*
X107857Y114967*
X10792Y115201*
G37*
G36*
X106438D02*
X105457D01*
X10552Y114967*
X105685Y114682*
X105919Y114448*
X106204Y114283*
X106438Y11422*
Y115201*
G37*
G36*
X83968Y11644D02*
X83671D01*
X83385Y116364*
X83129Y116216*
X82919Y116006*
X82771Y11575*
X82694Y115464*
Y115167*
X82771Y114881*
X82919Y114625*
X83129Y114415*
X83385Y114267*
X83671Y11419*
X83968*
X84254Y114267*
X8451Y114415*
X8472Y114625*
X84868Y114881*
X84944Y115167*
Y115464*
X84868Y11575*
X8472Y116006*
X8451Y116216*
X84254Y116364*
X83968Y11644*
G37*
G36*
X8012Y116453D02*
X7912D01*
X78876Y116404*
X78669Y116266*
X78531Y116059*
X78482Y115815*
Y114815*
X78531Y114572*
X78669Y114365*
X78876Y114227*
X7912Y114178*
X8012*
X80363Y114227*
X8057Y114365*
X80708Y114572*
X80757Y114815*
Y115815*
X80708Y116059*
X8057Y116266*
X80363Y116404*
X8012Y116453*
G37*
G36*
X119502Y112483D02*
Y111501D01*
X120484*
X120421Y111735*
X120256Y112021*
X120022Y112255*
X119736Y11242*
X119502Y112483*
G37*
G36*
X119002D02*
X118768Y11242D01*
X118483Y112255*
X118249Y112021*
X118084Y111735*
X118021Y111501*
X119002*
Y112483*
G37*
G36*
X115302D02*
Y111501D01*
X116284*
X116221Y111735*
X116056Y112021*
X115822Y112255*
X115537Y11242*
X115302Y112483*
G37*
G36*
X114802D02*
X114568Y11242D01*
X114283Y112255*
X114049Y112021*
X113884Y111735*
X113821Y111501*
X114802*
Y112483*
G37*
G36*
X106837Y112376D02*
X10654D01*
X106254Y1123*
X105998Y112152*
X105788Y111942*
X10564Y111686*
X105563Y1114*
Y111103*
X10564Y110817*
X105788Y110561*
X105998Y110351*
X106254Y110203*
X10654Y110126*
X106837*
X107123Y110203*
X107379Y110351*
X107589Y110561*
X107737Y110817*
X107813Y111103*
Y1114*
X107737Y111686*
X107589Y111942*
X107379Y112152*
X107123Y1123*
X106837Y112376*
G37*
G36*
X102637D02*
X10234D01*
X102054Y1123*
X101798Y112152*
X101588Y111942*
X10144Y111686*
X101363Y1114*
Y111103*
X10144Y110817*
X101588Y110561*
X101798Y110351*
X102054Y110203*
X10234Y110126*
X102637*
X102923Y110203*
X103179Y110351*
X103389Y110561*
X103537Y110817*
X103613Y111103*
Y1114*
X103537Y111686*
X103389Y111942*
X103179Y112152*
X102923Y1123*
X102637Y112376*
G37*
G36*
X120484Y111001D02*
X119502D01*
Y11002*
X119736Y110083*
X120022Y110248*
X120256Y110482*
X120421Y110767*
X120484Y111001*
G37*
G36*
X119002D02*
X118021D01*
X118084Y110767*
X118249Y110482*
X118483Y110248*
X118768Y110083*
X119002Y11002*
Y111001*
G37*
G36*
X116284D02*
X115302D01*
Y11002*
X115537Y110083*
X115822Y110248*
X116056Y110482*
X116221Y110767*
X116284Y111001*
G37*
G36*
X114802D02*
X113821D01*
X113884Y110767*
X114049Y110482*
X114283Y110248*
X114568Y110083*
X114802Y11002*
Y111001*
G37*
G36*
X81026Y112878D02*
X75946D01*
X75858Y11286*
X75783Y112811*
X73751Y110779*
X73702Y110704*
X73684Y110617*
Y109056*
X7362Y109039*
X73447Y108939*
X73305Y108797*
X73205Y108624*
X73153Y108431*
Y10823*
X73205Y108037*
X73305Y107864*
X73447Y107722*
X7362Y107622*
X73813Y10757*
X74014*
X74207Y107622*
X7438Y107722*
X74522Y107864*
X74622Y108037*
X74673Y10823*
Y108431*
X74622Y108624*
X74522Y108797*
X7438Y108939*
X74207Y109039*
X74143Y109056*
Y110521*
X7604Y112419*
X8093*
X82396Y110953*
X82471Y110904*
X82558Y110886*
X82716*
X82771Y110681*
X82919Y110425*
X83129Y110215*
X83385Y110067*
X83671Y10999*
X83968*
X84254Y110067*
X8451Y110215*
X8472Y110425*
X84868Y110681*
X84944Y110967*
Y111264*
X84868Y11155*
X8472Y111806*
X8451Y112016*
X84254Y112164*
X83968Y11224*
X83671*
X83385Y112164*
X83129Y112016*
X82919Y111806*
X82771Y11155*
X82741Y111437*
X82599Y111399*
X81188Y112811*
X81113Y11286*
X81026Y112878*
G37*
G36*
X79768Y11224D02*
X79471D01*
X79185Y112164*
X78929Y112016*
X78719Y111806*
X78571Y11155*
X78494Y111264*
Y110967*
X78571Y110681*
X78651Y110543*
X75169Y107062*
X75164Y107066*
X75057Y107087*
X71628*
X7152Y107066*
X71429Y107005*
X68889Y104465*
X68828Y104374*
X68807Y104267*
Y76484*
X68828Y76377*
X68889Y76286*
X71087Y74088*
X71055Y74033*
X70994Y73807*
Y73574*
X71055Y73348*
X71172Y73146*
X71337Y72981*
X71539Y72864*
X71765Y72803*
X71998*
X72224Y72864*
X72426Y72981*
X72591Y73146*
X72708Y73348*
X72768Y73574*
Y73807*
X72708Y74033*
X72591Y74235*
X72426Y744*
X72224Y74517*
X72071Y74558*
Y74689*
X72274Y74744*
X72505Y74877*
X72694Y75067*
X72828Y75298*
X72866Y7544*
X70897*
X70935Y75298*
X71051Y75097*
X70949Y75019*
X69368Y76601*
Y10415*
X71744Y106526*
X7494*
X75435Y106032*
X75526Y105971*
X75633Y10595*
X7582*
Y105944*
X75872Y105751*
X75972Y105578*
X76114Y105436*
X76287Y105336*
X7648Y105284*
X76681*
X76874Y105336*
X77047Y105436*
X77189Y105578*
X77289Y105751*
X7734Y105944*
Y106145*
X77289Y106338*
X77189Y106511*
X77047Y106653*
X76874Y106753*
X76681Y106804*
X7648*
X76287Y106753*
X76114Y106653*
X75972Y106511*
X75972Y10651*
X75749*
X7558Y10668*
X79047Y110147*
X79185Y110067*
X79471Y10999*
X79768*
X80054Y110067*
X8031Y110215*
X8052Y110425*
X80668Y110681*
X80744Y110967*
Y111264*
X80668Y11155*
X8052Y111806*
X8031Y112016*
X80054Y112164*
X79768Y11224*
G37*
G36*
X10637Y10549D02*
X106049D01*
X105735Y105428*
X10544Y105306*
X105174Y105128*
X104947Y104901*
X104769Y104635*
X104647Y104339*
X104584Y104026*
Y103705*
X104647Y103391*
X104769Y103096*
X104947Y10283*
X105174Y102603*
X10544Y102425*
X105735Y102303*
X106049Y10224*
X10637*
X106683Y102303*
X106979Y102425*
X107245Y102603*
X107472Y10283*
X10765Y103096*
X107772Y103391*
X107834Y103705*
Y104026*
X107772Y104339*
X10765Y104635*
X107472Y104901*
X107245Y105128*
X106979Y105306*
X106683Y105428*
X10637Y10549*
G37*
G36*
X8186D02*
X81539D01*
X81225Y105428*
X8093Y105306*
X80664Y105128*
X80437Y104901*
X80259Y104635*
X80137Y104339*
X80074Y104026*
Y103705*
X80137Y103391*
X80259Y103096*
X80437Y10283*
X80664Y102603*
X8093Y102425*
X81225Y102303*
X81539Y10224*
X8186*
X82174Y102303*
X82469Y102425*
X82735Y102603*
X82962Y10283*
X8314Y103096*
X83262Y103391*
X83325Y103705*
Y104026*
X83262Y104339*
X8314Y104635*
X82962Y104901*
X82735Y105128*
X82469Y105306*
X82174Y105428*
X8186Y10549*
G37*
G36*
X123433Y100581D02*
X1232D01*
X122974Y100521*
X122772Y100404*
X122607Y100239*
X12249Y100037*
X122429Y99811*
Y99578*
X12249Y99352*
X122607Y9915*
X122772Y98985*
X122974Y98868*
X1232Y98807*
X123433*
X123659Y98868*
X123861Y98985*
X124026Y9915*
X124143Y99352*
X124203Y99578*
Y99811*
X124143Y100037*
X124026Y100239*
X123861Y100404*
X123659Y100521*
X123433Y100581*
G37*
G36*
X119401Y116576D02*
X119104D01*
X118818Y1165*
X118562Y116352*
X118352Y116142*
X118204Y115886*
X118127Y1156*
Y115303*
X118204Y115017*
X118352Y114761*
X118562Y114551*
X118818Y114403*
X119104Y114326*
X119401*
X119687Y114403*
X119779Y114456*
X121207Y113028*
Y110902*
X107206Y96901*
X107114Y96954*
X106828Y9703*
X106531*
X106245Y96954*
X106153Y96901*
X102617Y100437*
X102509Y100509*
X102382Y100534*
X71044*
X70966Y100669*
X70824Y100811*
X70752Y100852*
Y102408*
X70778Y102415*
X70951Y102515*
X71093Y102657*
X71193Y10283*
X71244Y103023*
Y103224*
X71193Y103417*
X71093Y10359*
X70951Y103732*
X70778Y103832*
X70585Y103883*
X70384*
X70191Y103832*
X70018Y103732*
X69876Y10359*
X69776Y103417*
X69724Y103224*
Y103023*
X69776Y10283*
X69876Y102657*
X70018Y102515*
X7009Y102474*
Y100918*
X70064Y100911*
X69891Y100811*
X69749Y100669*
X69649Y100496*
X69597Y100303*
Y100102*
X69649Y99909*
X69749Y99736*
X69891Y99594*
X70064Y99494*
X70257Y99442*
X70458*
X70651Y99494*
X70824Y99594*
X70966Y99736*
X71044Y99871*
X102245*
X105684Y96432*
X105631Y9634*
X105554Y96054*
Y95757*
X105631Y95471*
X105779Y95215*
X105989Y95005*
X106245Y94857*
X106531Y9478*
X106828*
X107114Y94857*
X10737Y95005*
X10758Y95215*
X107728Y95471*
X107804Y95757*
Y96054*
X107728Y9634*
X107675Y96432*
X111816Y100573*
X11193Y100508*
X111888Y100353*
Y100153*
X11194Y9996*
X11204Y99787*
X112182Y99645*
X112355Y99545*
X112548Y99493*
X112749*
X112843Y99518*
X116584Y95777*
Y75692*
X116613Y75545*
X116696Y75421*
X121791Y70326*
Y68582*
X121573*
X121177Y68543*
X120795Y68427*
X120443Y68239*
X120135Y67986*
X119882Y67678*
X119694Y67326*
X119578Y66944*
X119539Y66548*
X119578Y66151*
X119694Y65769*
X119882Y65417*
X120135Y65109*
X120443Y64856*
X120795Y64668*
X121177Y64552*
X121573Y64513*
X122773*
X12317Y64552*
X123552Y64668*
X123904Y64856*
X124212Y65109*
X124465Y65417*
X124653Y65769*
X124769Y66151*
X124808Y66548*
X124769Y66944*
X124653Y67326*
X124465Y67678*
X124212Y67986*
X123904Y68239*
X123552Y68427*
X12317Y68543*
X122773Y68582*
X122556*
Y70485*
X122527Y70631*
X122444Y70755*
X117349Y7585*
Y95935*
X11732Y96082*
X117237Y96206*
X113383Y100059*
X113408Y100153*
Y100353*
X113357Y100547*
X113257Y10072*
X113115Y100861*
X112942Y100962*
X112749Y101013*
X112548*
X112394Y100972*
X112328Y101086*
X121773Y11053*
X121845Y110638*
X12187Y110764*
Y113165*
X121845Y113292*
X121773Y1134*
X120248Y114925*
X120301Y115017*
X120377Y115303*
Y1156*
X120301Y115886*
X120153Y116142*
X119943Y116352*
X119687Y1165*
X119401Y116576*
G37*
G36*
X82404Y9703D02*
X80154D01*
Y9478*
X82404*
Y9703*
G37*
G36*
X106929Y94597D02*
Y93615D01*
X107911*
X107848Y9385*
X107683Y94135*
X107449Y94369*
X107163Y94534*
X106929Y94597*
G37*
G36*
X106429D02*
X106195Y94534D01*
X10591Y94369*
X105676Y94135*
X105511Y9385*
X105448Y93615*
X106429*
Y94597*
G37*
G36*
X81529D02*
Y93615D01*
X82511*
X82448Y9385*
X82283Y94135*
X82049Y94369*
X81763Y94534*
X81529Y94597*
G37*
G36*
X81029D02*
X80795Y94534D01*
X8051Y94369*
X80276Y94135*
X80111Y9385*
X80048Y93615*
X81029*
Y94597*
G37*
G36*
X107911Y93115D02*
X106929D01*
Y92134*
X107163Y92197*
X107449Y92362*
X107683Y92596*
X107848Y92881*
X107911Y93115*
G37*
G36*
X106429D02*
X105448D01*
X105511Y92881*
X105676Y92596*
X10591Y92362*
X106195Y92197*
X106429Y92134*
Y93115*
G37*
G36*
X82511D02*
X81529D01*
Y92134*
X81763Y92197*
X82049Y92362*
X82283Y92596*
X82448Y92881*
X82511Y93115*
G37*
G36*
X81029D02*
X80048D01*
X80111Y92881*
X80276Y92596*
X8051Y92362*
X80795Y92197*
X81029Y92134*
Y93115*
G37*
G36*
X106828Y9195D02*
X106531D01*
X106245Y91874*
X105989Y91726*
X105779Y91516*
X105631Y9126*
X105554Y90974*
Y90677*
X105631Y90391*
X105779Y90135*
X105989Y89925*
X106245Y89777*
X106531Y897*
X106828*
X107114Y89777*
X10737Y89925*
X10758Y90135*
X107728Y90391*
X107804Y90677*
Y90974*
X107728Y9126*
X10758Y91516*
X10737Y91726*
X107114Y91874*
X106828Y9195*
G37*
G36*
X81428D02*
X81131D01*
X80845Y91874*
X80589Y91726*
X80379Y91516*
X80231Y9126*
X80154Y90974*
Y90677*
X80231Y90391*
X80379Y90135*
X80589Y89925*
X80845Y89777*
X81131Y897*
X81428*
X81714Y89777*
X8197Y89925*
X8218Y90135*
X82328Y90391*
X82404Y90677*
Y90974*
X82328Y9126*
X8218Y91516*
X8197Y91726*
X81714Y91874*
X81428Y9195*
G37*
G36*
X106828Y8941D02*
X106531D01*
X106245Y89334*
X105989Y89186*
X105779Y88976*
X105631Y8872*
X105554Y88434*
Y88137*
X105631Y87851*
X105779Y87595*
X105989Y87385*
X106245Y87237*
X106531Y8716*
X106828*
X107114Y87237*
X10737Y87385*
X10758Y87595*
X107728Y87851*
X107804Y88137*
Y88434*
X107728Y8872*
X10758Y88976*
X10737Y89186*
X107114Y89334*
X106828Y8941*
G37*
G36*
X81428D02*
X81131D01*
X80845Y89334*
X80589Y89186*
X80379Y88976*
X80231Y8872*
X80154Y88434*
Y88137*
X80231Y87851*
X80379Y87595*
X80589Y87385*
X80845Y87237*
X81131Y8716*
X81428*
X81714Y87237*
X8197Y87385*
X8218Y87595*
X82328Y87851*
X82404Y88137*
Y88434*
X82328Y8872*
X8218Y88976*
X8197Y89186*
X81714Y89334*
X81428Y8941*
G37*
G36*
X120893Y100581D02*
X12066D01*
X120434Y100521*
X120232Y100404*
X120067Y100239*
X11995Y100037*
X119889Y99811*
Y99578*
X11995Y99352*
X120067Y9915*
X120232Y98985*
X120394Y98891*
Y97282*
X120423Y97135*
X120506Y97011*
X121791Y95726*
Y90172*
X121573*
X121177Y90133*
X120795Y90017*
X120443Y89829*
X120135Y89576*
X119882Y89268*
X119694Y88916*
X119578Y88534*
X119539Y88138*
X119578Y87741*
X119694Y87359*
X119882Y87007*
X120135Y86699*
X120443Y86446*
X120795Y86258*
X121177Y86142*
X121573Y86103*
X122773*
X12317Y86142*
X123552Y86258*
X123904Y86446*
X124212Y86699*
X124465Y87007*
X124653Y87359*
X124769Y87741*
X124808Y88138*
X124769Y88534*
X124653Y88916*
X124465Y89268*
X124212Y89576*
X123904Y89829*
X123552Y90017*
X12317Y90133*
X122773Y90172*
X122556*
Y95885*
X122527Y96031*
X122444Y96155*
X122444*
X121159Y9744*
Y98891*
X121321Y98985*
X121486Y9915*
X121603Y99352*
X121663Y99578*
Y99811*
X121603Y100037*
X121486Y100239*
X121321Y100404*
X121119Y100521*
X120893Y100581*
G37*
G36*
X106828Y8687D02*
X106531D01*
X106245Y86794*
X105989Y86646*
X105779Y86436*
X105631Y8618*
X105554Y85894*
Y85597*
X105631Y85311*
X105779Y85055*
X105989Y84845*
X106245Y84697*
X106531Y8462*
X106828*
X107114Y84697*
X10737Y84845*
X10758Y85055*
X107728Y85311*
X107804Y85597*
Y85894*
X107728Y8618*
X10758Y86436*
X10737Y86646*
X107114Y86794*
X106828Y8687*
G37*
G36*
X81428D02*
X81131D01*
X80845Y86794*
X80589Y86646*
X80379Y86436*
X80231Y8618*
X80154Y85894*
Y85597*
X80231Y85311*
X80379Y85055*
X80589Y84845*
X80845Y84697*
X81131Y8462*
X81428*
X81714Y84697*
X8197Y84845*
X8218Y85055*
X82328Y85311*
X82404Y85597*
Y85894*
X82328Y8618*
X8218Y86436*
X8197Y86646*
X81714Y86794*
X81428Y8687*
G37*
G36*
X73633Y85849D02*
X73432D01*
X73239Y85798*
X73066Y85698*
X72924Y85556*
X72824Y85383*
X72772Y8519*
Y84989*
X72824Y84796*
X72924Y84623*
X73066Y84481*
X73239Y84381*
X73252Y84378*
Y8414*
X73125Y84087*
X73062Y8415*
X7286Y84267*
X72766Y84292*
Y83439*
Y82585*
X7286Y8261*
X73062Y82727*
X73125Y8279*
X73252Y82737*
Y82677*
X73273Y82569*
X73334Y82478*
X77443Y78369*
Y75939*
X77316Y75923*
X77273Y76083*
X77139Y76314*
X7695Y76503*
X76719Y76637*
X76609Y76667*
X76626Y76794*
X76708*
X76905Y76833*
X77072Y76945*
X77184Y77112*
X77223Y77309*
Y78071*
X77184Y78269*
X77072Y78436*
X76905Y78548*
X76708Y78587*
X75946*
X75748Y78548*
X75581Y78436*
X75469Y78269*
X7543Y78071*
Y78022*
X72778*
Y78071*
X72739Y78269*
X72627Y78436*
X7246Y78548*
X72263Y78587*
X71501*
X71303Y78548*
X71136Y78436*
X71024Y78269*
X70985Y78071*
Y77309*
X71024Y77112*
X71136Y76945*
X71303Y76833*
X71501Y76794*
X71582*
X71599Y76667*
X71489Y76637*
X71258Y76503*
X71068Y76314*
X70935Y76083*
X70897Y7594*
X72866*
X72828Y76083*
X72694Y76314*
X72505Y76503*
X72274Y76637*
X72164Y76667*
X72181Y76794*
X72263*
X7246Y76833*
X72627Y76945*
X72739Y77112*
X72778Y77309*
Y77359*
X7543*
Y77309*
X75469Y77112*
X75581Y76945*
X75748Y76833*
X75946Y76794*
X76027*
X76044Y76667*
X75934Y76637*
X75703Y76503*
X75513Y76314*
X7538Y76083*
X75342Y7594*
X76327*
Y7544*
X75342*
X7538Y75298*
X75513Y75067*
X75703Y74877*
X75934Y74744*
X76137Y74689*
Y74558*
X75984Y74517*
X75782Y744*
X75617Y74235*
X755Y74033*
X75439Y73807*
Y73574*
X755Y73348*
X75617Y73146*
X75782Y72981*
X75984Y72864*
X7621Y72803*
X76443*
X76669Y72864*
X76871Y72981*
X77036Y73146*
X77153Y73348*
X77213Y73574*
Y73807*
X77153Y74033*
X77121Y74088*
X77922Y74889*
X77983Y7498*
X78004Y75087*
Y78486*
X77983Y78593*
X77922Y78684*
X73813Y82793*
Y84378*
X73826Y84381*
X73999Y84481*
X74141Y84623*
X74241Y84796*
X74292Y84989*
Y8519*
X74241Y85383*
X74141Y85556*
X73999Y85698*
X73826Y85798*
X73633Y85849*
G37*
G36*
X72266Y84292D02*
X72173Y84267D01*
X71971Y8415*
X71805Y83984*
X71688Y83782*
X71663Y83688*
X72266*
Y84292*
G37*
G36*
Y83188D02*
X71663D01*
X71688Y83095*
X71805Y82893*
X71971Y82727*
X72173Y8261*
X72266Y82585*
Y83188*
G37*
G36*
X106828Y8433D02*
X106531D01*
X106245Y84254*
X105989Y84106*
X105779Y83896*
X105631Y8364*
X105554Y83354*
Y83057*
X105631Y82771*
X105779Y82515*
X105989Y82305*
X106245Y82157*
X106531Y8208*
X106828*
X107114Y82157*
X10737Y82305*
X10758Y82515*
X107728Y82771*
X107804Y83057*
Y83354*
X107728Y8364*
X10758Y83896*
X10737Y84106*
X107114Y84254*
X106828Y8433*
G37*
G36*
X81428D02*
X81131D01*
X80845Y84254*
X80589Y84106*
X80379Y83896*
X80231Y8364*
X80154Y83354*
Y83057*
X80231Y82771*
X80379Y82515*
X80589Y82305*
X80845Y82157*
X81131Y8208*
X81428*
X81714Y82157*
X8197Y82305*
X8218Y82515*
X82328Y82771*
X82404Y83057*
Y83354*
X82328Y8364*
X8218Y83896*
X8197Y84106*
X81714Y84254*
X81428Y8433*
G37*
G36*
X106828Y8179D02*
X106531D01*
X106245Y81714*
X105989Y81566*
X105779Y81356*
X105631Y811*
X105554Y80814*
Y80517*
X105631Y80231*
X105779Y79975*
X105989Y79765*
X106245Y79617*
X106531Y7954*
X106828*
X107114Y79617*
X10737Y79765*
X10758Y79975*
X107728Y80231*
X107804Y80517*
Y80814*
X107728Y811*
X10758Y81356*
X10737Y81566*
X107114Y81714*
X106828Y8179*
G37*
G36*
X81428D02*
X81131D01*
X80845Y81714*
X80589Y81566*
X80379Y81356*
X80231Y811*
X80154Y80814*
Y80517*
X80231Y80231*
X80379Y79975*
X80589Y79765*
X80845Y79617*
X81131Y7954*
X81428*
X81714Y79617*
X8197Y79765*
X8218Y79975*
X82328Y80231*
X82404Y80517*
Y80814*
X82328Y811*
X8218Y81356*
X8197Y81566*
X81714Y81714*
X81428Y8179*
G37*
G36*
X106828Y7925D02*
X106531D01*
X106245Y79174*
X105989Y79026*
X105779Y78816*
X105631Y7856*
X105554Y78274*
Y77977*
X105631Y77691*
X105779Y77435*
X105989Y77225*
X106245Y77077*
X106531Y77*
X106828*
X107114Y77077*
X10737Y77225*
X10758Y77435*
X107728Y77691*
X107804Y77977*
Y78274*
X107728Y7856*
X10758Y78816*
X10737Y79026*
X107114Y79174*
X106828Y7925*
G37*
G36*
X77216Y97435D02*
X75692D01*
X75584Y97414*
X75493Y97353*
X74726Y96586*
X74715Y96593*
X74522Y96644*
X74321*
X74128Y96593*
X73955Y96493*
X73813Y96351*
X73713Y96178*
X73661Y95985*
Y95784*
X73713Y95591*
X73813Y95418*
X73955Y95276*
X74128Y95176*
X74321Y95124*
X74522*
X74715Y95176*
X74888Y95276*
X7503Y95418*
X7513Y95591*
X75181Y95784*
Y95985*
X7513Y96178*
X75123Y96189*
X75808Y96874*
X77099*
X79221Y94752*
Y79903*
X79242Y79796*
X79303Y79705*
X80311Y78698*
X80231Y7856*
X80154Y78274*
Y77977*
X80231Y77691*
X80379Y77435*
X80589Y77225*
X80845Y77077*
X81131Y77*
X81428*
X81714Y77077*
X8197Y77225*
X8218Y77435*
X82328Y77691*
X82404Y77977*
Y78274*
X82328Y7856*
X8218Y78816*
X8197Y79026*
X81714Y79174*
X81428Y7925*
X81131*
X80845Y79174*
X80707Y79094*
X79782Y8002*
Y94869*
X79761Y94976*
X797Y95067*
X77414Y97353*
X77323Y97414*
X77216Y97435*
G37*
G36*
X106828Y7671D02*
X106531D01*
X106245Y76634*
X105989Y76486*
X105779Y76276*
X105631Y7602*
X105554Y75734*
Y75437*
X105631Y75151*
X105779Y74895*
X105989Y74685*
X106245Y74537*
X106531Y7446*
X106828*
X107114Y74537*
X10737Y74685*
X10758Y74895*
X107728Y75151*
X107804Y75437*
Y75734*
X107728Y7602*
X10758Y76276*
X10737Y76486*
X107114Y76634*
X106828Y7671*
G37*
G36*
X76427Y96517D02*
X76226D01*
X76033Y96466*
X7586Y96366*
X75718Y96224*
X75618Y96051*
X75566Y95858*
Y95657*
X75618Y95464*
X75718Y95291*
X7586Y95149*
X76033Y95049*
X76226Y94997*
X76427*
X7662Y95049*
X76631Y95056*
X78078Y93609*
Y791*
X78099Y78992*
X7816Y78901*
X78819Y78242*
Y75761*
X7884Y75654*
X78901Y75563*
X79077Y75387*
X79168Y75326*
X79275Y75305*
X79275*
X8019*
X80231Y75151*
X80379Y74895*
X80589Y74685*
X80845Y74537*
X81131Y7446*
X81428*
X81714Y74537*
X8197Y74685*
X8218Y74895*
X82328Y75151*
X82404Y75437*
Y75734*
X82328Y7602*
X8218Y76276*
X8197Y76486*
X81714Y76634*
X81428Y7671*
X81131*
X80845Y76634*
X80589Y76486*
X80379Y76276*
X80231Y7602*
X8019Y75866*
X79391*
X7938Y75877*
Y78359*
X79359Y78466*
X79298Y78557*
X78639Y79216*
Y93726*
X78618Y93833*
X78557Y93924*
X77028Y95453*
X77035Y95464*
X77086Y95657*
Y95858*
X77035Y96051*
X76935Y96224*
X76793Y96366*
X7662Y96466*
X76427Y96517*
G37*
G36*
X106828Y7417D02*
X106531D01*
X106245Y74094*
X105989Y73946*
X105779Y73736*
X105631Y7348*
X105554Y73194*
Y72897*
X105631Y72611*
X105779Y72355*
X105989Y72145*
X106245Y71997*
X106531Y7192*
X106828*
X107114Y71997*
X10737Y72145*
X10758Y72355*
X107728Y72611*
X107804Y72897*
Y73194*
X107728Y7348*
X10758Y73736*
X10737Y73946*
X107114Y74094*
X106828Y7417*
G37*
G36*
X81428D02*
X81131D01*
X80845Y74094*
X80589Y73946*
X80379Y73736*
X80231Y7348*
X8019Y73326*
X79776*
X79669Y73305*
X79578Y73244*
X78668Y72334*
X78607Y72243*
X78586Y72136*
Y70601*
X77956Y69971*
X7717*
X77153Y70033*
X77036Y70235*
X76871Y704*
X76669Y70517*
X76443Y70577*
X7621*
X75984Y70517*
X75782Y704*
X75617Y70235*
X755Y70033*
X75483Y69971*
X72725*
X72708Y70033*
X72591Y70235*
X72426Y704*
X72224Y70517*
X71998Y70577*
X71765*
X71539Y70517*
X71337Y704*
X71172Y70235*
X71055Y70033*
X70994Y69807*
Y69574*
X71055Y69348*
X71172Y69146*
X71337Y68981*
X71539Y68864*
X71765Y68803*
X71998*
X72224Y68864*
X72426Y68981*
X72591Y69146*
X72708Y69348*
X72725Y6941*
X75483*
X755Y69348*
X75617Y69146*
X75782Y68981*
X75984Y68864*
X7621Y68803*
X76443*
X76669Y68864*
X76871Y68981*
X77036Y69146*
X77153Y69348*
X7717Y6941*
X78072*
X7818Y69431*
X78271Y69492*
X79065Y70286*
X79126Y70377*
X79147Y70485*
Y72019*
X79893Y72765*
X8019*
X80231Y72611*
X80379Y72355*
X80589Y72145*
X80845Y71997*
X81131Y7192*
X81428*
X81714Y71997*
X8197Y72145*
X8218Y72355*
X82328Y72611*
X82404Y72897*
Y73194*
X82328Y7348*
X8218Y73736*
X8197Y73946*
X81714Y74094*
X81428Y7417*
G37*
G36*
X76443Y72577D02*
X7621D01*
X75984Y72517*
X75782Y724*
X75617Y72235*
X755Y72033*
X75439Y71807*
Y71574*
X755Y71348*
X75617Y71146*
X75782Y70981*
X75984Y70864*
X7621Y70803*
X76443*
X76669Y70864*
X76871Y70981*
X77036Y71146*
X77153Y71348*
X77213Y71574*
Y71807*
X77153Y72033*
X77036Y72235*
X76871Y724*
X76669Y72517*
X76443Y72577*
G37*
G36*
X71998D02*
X71765D01*
X71539Y72517*
X71337Y724*
X71172Y72235*
X71055Y72033*
X70994Y71807*
Y71574*
X71055Y71348*
X71172Y71146*
X71337Y70981*
X71539Y70864*
X71765Y70803*
X71998*
X72224Y70864*
X72426Y70981*
X72591Y71146*
X72708Y71348*
X72768Y71574*
Y71807*
X72708Y72033*
X72591Y72235*
X72426Y724*
X72224Y72517*
X71998Y72577*
G37*
G36*
X106828Y7163D02*
X106531D01*
X106245Y71554*
X105989Y71406*
X105779Y71196*
X105631Y7094*
X105554Y70654*
Y70357*
X105631Y70071*
X105779Y69815*
X105989Y69605*
X106245Y69457*
X106531Y6938*
X106828*
X107114Y69457*
X10737Y69605*
X10758Y69815*
X107728Y70071*
X107804Y70357*
Y70654*
X107728Y7094*
X10758Y71196*
X10737Y71406*
X107114Y71554*
X106828Y7163*
G37*
G36*
X81428D02*
X81131D01*
X80845Y71554*
X80589Y71406*
X80379Y71196*
X80231Y7094*
X80154Y70654*
Y70357*
X80231Y70071*
X80379Y69815*
X80589Y69605*
X80845Y69457*
X81131Y6938*
X81428*
X81714Y69457*
X8197Y69605*
X8218Y69815*
X82328Y70071*
X82369Y70225*
X103282*
X103707Y698*
X103685Y69762*
X103633Y69569*
Y69368*
X103685Y69175*
X103785Y69002*
X103927Y6886*
X1041Y6876*
X104293Y68708*
X104494*
X104687Y6876*
X10486Y6886*
X105002Y69002*
X105102Y69175*
X105153Y69368*
Y69569*
X105102Y69762*
X105002Y69935*
X10486Y70077*
X104687Y70177*
X104494Y70228*
X104293*
X104119Y70182*
X103597Y70704*
X103506Y70765*
X103398Y70786*
X82369*
X82328Y7094*
X8218Y71196*
X8197Y71406*
X81714Y71554*
X81428Y7163*
G37*
G36*
X76443Y68577D02*
X7621D01*
X75984Y68517*
X75782Y684*
X75617Y68235*
X755Y68033*
X75483Y67971*
X72725*
X72708Y68033*
X72591Y68235*
X72426Y684*
X72224Y68517*
X71998Y68577*
X71765*
X71539Y68517*
X71337Y684*
X71172Y68235*
X71055Y68033*
X70994Y67807*
Y67574*
X71055Y67348*
X71172Y67146*
X71337Y66981*
X71539Y66864*
X71765Y66803*
X71998*
X72224Y66864*
X72426Y66981*
X72591Y67146*
X72708Y67348*
X72725Y6741*
X75483*
X755Y67348*
X75617Y67146*
X75782Y66981*
X75984Y66864*
X7621Y66803*
X76443*
X76669Y66864*
X76871Y66981*
X77036Y67146*
X77153Y67348*
X77213Y67574*
Y67807*
X77153Y68033*
X77036Y68235*
X76871Y684*
X76669Y68517*
X76443Y68577*
G37*
G36*
X106828Y6909D02*
X106531D01*
X106245Y69014*
X105989Y68866*
X105779Y68656*
X105631Y684*
X105554Y68114*
Y67817*
X105631Y67531*
X105779Y67275*
X105989Y67065*
X106245Y66917*
X106531Y6684*
X106828*
X107114Y66917*
X10737Y67065*
X10758Y67275*
X107728Y67531*
X107804Y67817*
Y68114*
X107728Y684*
X10758Y68656*
X10737Y68866*
X107114Y69014*
X106828Y6909*
G37*
G36*
X81428D02*
X81131D01*
X80845Y69014*
X80589Y68866*
X80379Y68656*
X80231Y684*
X80154Y68114*
Y67817*
X80231Y67531*
X80379Y67275*
X80589Y67065*
X80845Y66917*
X81131Y6684*
X81428*
X81714Y66917*
X8197Y67065*
X8218Y67275*
X82328Y67531*
X82404Y67817*
Y68114*
X82328Y684*
X8218Y68656*
X8197Y68866*
X81714Y69014*
X81428Y6909*
G37*
G36*
X76443Y66545D02*
X7621D01*
X75984Y66485*
X75782Y66368*
X75617Y66203*
X755Y66001*
X75483Y65939*
X72725*
X72708Y66001*
X72591Y66203*
X72426Y66368*
X72224Y66485*
X71998Y66545*
X71765*
X71539Y66485*
X71337Y66368*
X71172Y66203*
X71055Y66001*
X70994Y65775*
Y65542*
X71055Y65316*
X71172Y65114*
X71337Y64949*
X71539Y64832*
X71765Y64771*
X71998*
X72224Y64832*
X72426Y64949*
X72591Y65114*
X72708Y65316*
X72725Y65378*
X75483*
X755Y65316*
X75617Y65114*
X75782Y64949*
X75984Y64832*
X7621Y64771*
X76443*
X76669Y64832*
X76871Y64949*
X77036Y65114*
X77153Y65316*
X77213Y65542*
Y65775*
X77153Y66001*
X77036Y66203*
X76871Y66368*
X76669Y66485*
X76443Y66545*
G37*
G36*
X106828Y6655D02*
X106531D01*
X106245Y66474*
X105989Y66326*
X105779Y66116*
X105631Y6586*
X105554Y65574*
Y65277*
X105631Y64991*
X105779Y64735*
X105989Y64525*
X106245Y64377*
X106531Y643*
X106828*
X107114Y64377*
X10737Y64525*
X10758Y64735*
X107728Y64991*
X107804Y65277*
Y65574*
X107728Y6586*
X10758Y66116*
X10737Y66326*
X107114Y66474*
X106828Y6655*
G37*
G36*
X81428D02*
X81131D01*
X80845Y66474*
X80589Y66326*
X80379Y66116*
X80231Y6586*
X80154Y65574*
Y65277*
X80231Y64991*
X80379Y64735*
X80589Y64525*
X80845Y64377*
X81131Y643*
X81428*
X81714Y64377*
X8197Y64525*
X8218Y64735*
X82328Y64991*
X82404Y65277*
Y65574*
X82328Y6586*
X8218Y66116*
X8197Y66326*
X81714Y66474*
X81428Y6655*
G37*
G36*
X111669Y95565D02*
X111469D01*
X111276Y95513*
X111102Y95413*
X110961Y95272*
X110861Y95098*
X110809Y94905*
Y94705*
X110861Y94512*
X110961Y94338*
X111102Y94197*
X111276Y94097*
X111469Y94045*
X111669*
X11182Y94085*
X115238Y90667*
Y75057*
X115263Y7493*
X115335Y74822*
X116889Y73268*
Y635*
X116914Y63373*
X116986Y63265*
X118279Y61972*
X118238Y61822*
Y61621*
X11829Y61428*
X11839Y61255*
X118532Y61113*
X118705Y61013*
X118898Y60961*
X119099*
X119292Y61013*
X119465Y61113*
X119607Y61255*
X119707Y61428*
X119758Y61621*
Y61822*
X119707Y62015*
X119607Y62188*
X119465Y6233*
X119292Y6243*
X119099Y62481*
X118898*
X118748Y62441*
X117552Y63637*
Y73406*
X117527Y73532*
X117455Y7364*
X115901Y75194*
Y90805*
X115876Y90931*
X115804Y91039*
X112289Y94554*
X112329Y94705*
Y94905*
X112277Y95098*
X112177Y95272*
X112036Y95413*
X111862Y95513*
X111669Y95565*
G37*
G36*
X126046Y57677D02*
X125667D01*
X125295Y57603*
X124945Y57458*
X124629Y57248*
X124361Y5698*
X124151Y56664*
X124005Y56314*
X123931Y55942*
Y55563*
X124005Y55191*
X124151Y54841*
X124361Y54525*
X124629Y54257*
X124945Y54047*
X125295Y53901*
X125667Y53827*
X126046*
X126418Y53901*
X126768Y54047*
X127084Y54257*
X127352Y54525*
X127562Y54841*
X127707Y55191*
X127781Y55563*
Y55942*
X127707Y56314*
X127562Y56664*
X127352Y5698*
X127084Y57248*
X126768Y57458*
X126418Y57603*
X126046Y57677*
G37*
G36*
X71817D02*
X71438D01*
X71066Y57603*
X70716Y57458*
X704Y57248*
X70132Y5698*
X69922Y56664*
X69776Y56314*
X69702Y55942*
Y55563*
X69776Y55191*
X69922Y54841*
X70132Y54525*
X704Y54257*
X70716Y54047*
X71066Y53901*
X71438Y53827*
X71817*
X72189Y53901*
X72539Y54047*
X72855Y54257*
X73123Y54525*
X73333Y54841*
X73478Y55191*
X73552Y55563*
Y55942*
X73478Y56314*
X73333Y56664*
X73123Y5698*
X72855Y57248*
X72539Y57458*
X72189Y57603*
X71817Y57677*
G37*
%LNecu_freio_2024_equipe_imperador_copper_signal_bot-3*%
%LPD*%
G54D10*
X105697Y59439D02*
X110363Y56769D01*
X105669Y59454D02*
X105697Y59439D01*
X101822Y62885D02*
X105669Y59454D01*
X8128Y62885D02*
X101822D01*
X104394Y69469D02*
Y6951D01*
X103398Y70505D02*
X104394Y6951D01*
X8128Y70505D02*
X103398D01*
X78867Y70485D02*
Y72136D01*
X79776Y73045*
X78072Y6969D02*
X78867Y70485D01*
X76327Y6969D02*
X78072D01*
X79776Y73045D02*
X8128D01*
X71882Y6969D02*
X76327D01*
X75692Y97155D02*
X77216D01*
X79502Y79903D02*
Y94869D01*
X77216Y97155D02*
X79502Y94869D01*
X74422Y95885D02*
X75692Y97155D01*
X79502Y79903D02*
X8128Y78125D01*
X791Y75761D02*
X79275Y75585D01*
X78359Y791D02*
Y93726D01*
Y791D02*
X791Y78359D01*
X79275Y75585D02*
X8128D01*
X791Y75761D02*
Y78359D01*
X76327Y95758D02*
X78359Y93726D01*
X75633Y10623D02*
X76395D01*
X76581Y106045*
X73533Y82677D02*
X77724Y78486D01*
X76327Y7369D02*
X77724Y75087D01*
Y78486*
X73533Y82677D02*
Y8509D01*
X75057Y106807D02*
X75184Y10668D01*
X7962Y111116*
X71628Y106807D02*
X75057D01*
X75184Y10668D02*
X75633Y10623D01*
X69088Y104267D02*
X71628Y106807D01*
X69088Y76484D02*
Y104267D01*
Y76484D02*
X71882Y7369D01*
Y67691D02*
X76327D01*
X71882Y65659D02*
X76327D01*
G54D17*
X118999Y61722D02*
X119126Y61595D01*
X117221Y635D02*
X118999Y61722D01*
X117221Y635D02*
Y73406D01*
X11557Y75057D02*
X117221Y73406D01*
X11557Y75057D02*
Y90805D01*
X111569Y94805D02*
X11557Y90805D01*
X102382Y100203D02*
X10668Y95905D01*
X70358Y100203D02*
X102382D01*
X70358D02*
X70421Y100266D01*
Y10306D02*
X70485Y103124D01*
X70421Y100266D02*
Y10306D01*
X119253Y115451D02*
X121539Y113165D01*
X10668Y95905D02*
X121539Y110764D01*
Y113165*
X71882Y7769D02*
X76327D01*
G54D18*
X73914Y110617D02*
X75946Y112649D01*
X81026D02*
X82558Y111116D01*
X75946Y112649D02*
X81026D01*
X82558Y111116D02*
X8382D01*
X73914Y108331D02*
Y110617D01*
G54D19*
X112649Y100253D02*
X116967Y95935D01*
Y75692D02*
Y95935D01*
X120777Y97282D02*
Y99695D01*
Y97282D02*
X122174Y95885D01*
Y88138D02*
Y95885D01*
X116967Y75692D02*
X122174Y70485D01*
Y66548D02*
Y70485D01*
G54D20*
X8128Y95905D03*
G54D21*
X8128Y93365D03*
Y90825D03*
Y88285D03*
Y85745D03*
Y83205D03*
Y80665D03*
Y78125D03*
Y75585D03*
Y73045D03*
Y70505D03*
Y67965D03*
Y65425D03*
Y62885D03*
Y60345D03*
X10668Y95905D03*
Y93365D03*
Y90825D03*
Y88285D03*
Y85745D03*
Y83205D03*
Y80665D03*
Y78125D03*
Y75585D03*
Y73045D03*
Y70505D03*
Y67965D03*
Y65425D03*
Y62885D03*
Y60345D03*
X102489Y111252D03*
X106688Y115451D03*
Y111252D03*
X7962Y111116D03*
X8382Y115316D03*
Y111116D03*
X115053Y111252D03*
X119253Y115451D03*
Y111252D03*
G54D22*
X81699Y56916D03*
X106209D03*
Y103865D03*
X81699D03*
G54D23*
X122174Y66548D03*
Y88138D03*
G54D24*
X123317Y99695D03*
X120777D03*
X76327Y65659D03*
Y67691D03*
Y6969D03*
Y7169D03*
Y7369D03*
Y7569D03*
X71882Y65659D03*
Y67691D03*
Y6969D03*
Y7169D03*
Y7369D03*
Y7569D03*
G54D25*
X76327Y7769D03*
X71882D03*
G54D26*
X102489Y115451D03*
X7962Y115316D03*
X115053Y115451D03*
G54D27*
X125857Y117602D03*
Y55753D03*
X71628D03*
Y117602D03*
G54D28*
X72517Y83439D03*
X118999Y61722D03*
X111569Y94805D03*
X104394Y69469D03*
X70358Y100203D03*
X70485Y103124D03*
X74422Y95885D03*
X76327Y95758D03*
X76581Y106045D03*
X73914Y108331D03*
X110363Y56769D03*
X73533Y8509D03*
X112649Y100253D03*
M02*