%FSTAX23Y23*%
%MOMM*%
%SFA1B1*%

%IPPOS*%
%ADD47C,1.019998*%
%ADD48C,1.799996*%
%ADD49C,0.799998*%
%ADD50C,0.799998*%
%ADD51C,0.999998*%
%ADD52C,3.599993*%
%ADD53C,3.599993*%
%ADD54C,3.599993*%
%ADD55C,3.599993*%
%ADD56C,0.711199*%
%LNecu_freio_2024_equipe_imperador_pth_drill-1*%
%LPD*%
G54D47*
X8128Y95905D03*
Y93365D03*
Y90825D03*
Y88285D03*
Y85745D03*
Y83205D03*
Y80665D03*
Y78125D03*
Y75585D03*
Y73045D03*
Y70505D03*
Y67965D03*
Y65425D03*
Y62885D03*
Y60345D03*
X10668Y95905D03*
Y93365D03*
Y90825D03*
Y88285D03*
Y85745D03*
Y83205D03*
Y80665D03*
Y78125D03*
Y75585D03*
Y73045D03*
Y70505D03*
Y67965D03*
Y65425D03*
Y62885D03*
Y60345D03*
G54D48*
X122174Y66548D03*
Y88138D03*
G54D49*
X123317Y99695D03*
X120777D03*
G54D50*
X76327Y65659D03*
Y7769D03*
Y67691D03*
Y6969D03*
Y7169D03*
Y7369D03*
Y7569D03*
X71882Y65659D03*
Y7769D03*
Y67691D03*
Y6969D03*
Y7169D03*
Y7369D03*
Y7569D03*
G54D51*
X102489Y115451D03*
Y111252D03*
X106688Y115451D03*
Y111252D03*
X7962Y115316D03*
Y111116D03*
X8382Y115316D03*
Y111116D03*
X115053Y115451D03*
Y111252D03*
X119253Y115451D03*
Y111252D03*
G54D52*
X125857Y117602D03*
G54D53*
X125857Y55753D03*
G54D54*
X71628Y55753D03*
G54D55*
X71628Y117602D03*
G54D56*
X72517Y83439D03*
X118999Y61722D03*
X111569Y94805D03*
X104394Y69469D03*
X70358Y100203D03*
X70485Y103124D03*
X74422Y95885D03*
X76327Y95758D03*
X76581Y106045D03*
X73914Y108331D03*
X110363Y56769D03*
X73533Y8509D03*
X112649Y100253D03*
M02*