%FSTAX23Y23*%
%MOMM*%
%SFA1B1*%

%IPPOS*%
%AMD15*
4,1,8,-0.601980,-0.175260,0.601980,-0.175260,0.777240,0.000000,0.777240,0.000000,0.601980,0.175260,-0.601980,0.175260,-0.777240,0.000000,-0.777240,0.000000,-0.601980,-0.175260,0.0*
1,1,0.350000,-0.601980,0.000000*
1,1,0.350000,0.601980,0.000000*
1,1,0.350000,0.601980,0.000000*
1,1,0.350000,-0.601980,0.000000*
%
%AMD39*
4,1,8,0.599440,2.001520,-0.599440,2.001520,-2.600960,0.000000,-2.600960,0.000000,-0.599440,-2.001520,0.599440,-2.001520,2.600960,0.000000,2.600960,0.000000,0.599440,2.001520,0.0*
1,1,4.003200,0.599440,0.000000*
1,1,4.003200,-0.599440,0.000000*
1,1,4.003200,-0.599440,0.000000*
1,1,4.003200,0.599440,0.000000*
%
%AMD41*
4,1,8,0.381000,0.863600,-0.381000,0.863600,-0.863600,0.381000,-0.863600,-0.381000,-0.381000,-0.863600,0.381000,-0.863600,0.863600,-0.381000,0.863600,0.381000,0.381000,0.863600,0.0*
1,1,0.965200,0.381000,0.381000*
1,1,0.965200,-0.381000,0.381000*
1,1,0.965200,-0.381000,-0.381000*
1,1,0.965200,0.381000,-0.381000*
%
%AMD42*
4,1,8,0.500380,1.102360,-0.500380,1.102360,-1.102360,0.500380,-1.102360,-0.500380,-0.500380,-1.102360,0.500380,-1.102360,1.102360,-0.500380,1.102360,0.500380,0.500380,1.102360,0.0*
1,1,1.203200,0.500380,0.500380*
1,1,1.203200,-0.500380,0.500380*
1,1,1.203200,-0.500380,-0.500380*
1,1,1.203200,0.500380,-0.500380*
%
%ADD11R,0.539999X0.859998*%
%ADD14R,1.556497X0.349999*%
G04~CAMADD=15~8~0.0~0.0~612.8~137.8~68.9~0.0~15~0.0~0.0~0.0~0.0~0~0.0~0.0~0.0~0.0~0~0.0~0.0~0.0~180.0~612.0~137.0*
%ADD15D15*%
%ADD33R,0.853198X1.728197*%
%ADD34R,1.653197X1.403197*%
%ADD35R,1.703197X1.753196*%
%ADD36R,2.203196X2.203196*%
%ADD37C,2.203196*%
%ADD38C,3.203194*%
G04~CAMADD=39~8~0.0~0.0~2048.5~1576.1~788.0~0.0~15~0.0~0.0~0.0~0.0~0~0.0~0.0~0.0~0.0~0~0.0~0.0~0.0~0.0~2048.5~1576.1*
%ADD39D39*%
%ADD40C,1.727197*%
G04~CAMADD=41~8~0.0~0.0~680.0~680.0~190.0~0.0~15~0.0~0.0~0.0~0.0~0~0.0~0.0~0.0~0.0~0~0.0~0.0~0.0~0.0~680.0~680.0*
%ADD41D41*%
G04~CAMADD=42~8~0.0~0.0~867.4~867.4~236.9~0.0~15~0.0~0.0~0.0~0.0~0~0.0~0.0~0.0~0.0~0~0.0~0.0~0.0~0.0~867.4~867.4*
%ADD42D42*%
%ADD43C,1.727197*%
%ADD44C,1.473197*%
%LNecu_freio_2024_equipe_imperador_soldermask_top-1*%
%LPD*%
G54D11*
X112649Y102362D03*
Y104501D03*
G54D14*
X114368Y67198D03*
G54D15*
X114368Y67698D03*
Y68199D03*
Y68698D03*
Y69198D03*
X110167D03*
Y68698D03*
Y68199D03*
Y67698D03*
Y67198D03*
G54D33*
X76454Y104185D03*
X75184D03*
X73914D03*
X72644D03*
Y9876D03*
X73914D03*
X75184D03*
X76454D03*
X72517Y87457D03*
X73787D03*
X75057D03*
X76327D03*
Y92882D03*
X75057D03*
X73787D03*
X72517D03*
G54D34*
X116586Y60419D03*
Y5842D03*
X112776Y58435D03*
Y60435D03*
G54D35*
X113157Y78105D03*
X111356D03*
X77734Y81534D03*
X75935D03*
X111367Y89535D03*
X113167D03*
Y72517D03*
X111367D03*
G54D36*
X8128Y95905D03*
G54D37*
X8128Y93365D03*
Y90825D03*
Y88285D03*
Y85745D03*
Y83205D03*
Y80665D03*
Y78125D03*
Y75585D03*
Y73045D03*
Y70505D03*
Y67965D03*
Y65425D03*
Y62885D03*
Y60345D03*
X10668Y95905D03*
Y93365D03*
Y90825D03*
Y88285D03*
Y85745D03*
Y83205D03*
Y80665D03*
Y78125D03*
Y75585D03*
Y73045D03*
Y70505D03*
Y67965D03*
Y65425D03*
Y62885D03*
Y60345D03*
X102489Y111252D03*
X106688Y115451D03*
Y111252D03*
X7962Y111116D03*
X8382Y115316D03*
Y111116D03*
X115053Y111252D03*
X119253Y115451D03*
Y111252D03*
G54D38*
X81699Y56916D03*
X106209D03*
Y103865D03*
X81699D03*
G54D39*
X122174Y66548D03*
Y88138D03*
G54D40*
X123317Y99695D03*
X120777D03*
X76327Y65659D03*
Y67691D03*
Y6969D03*
Y7169D03*
Y7369D03*
Y7569D03*
X71882Y65659D03*
Y67691D03*
Y6969D03*
Y7169D03*
Y7369D03*
Y7569D03*
G54D41*
X76327Y7769D03*
X71882D03*
G54D42*
X102489Y115451D03*
X7962Y115316D03*
X115053Y115451D03*
G54D43*
X125857Y117602D03*
Y55753D03*
X71628D03*
Y117602D03*
G54D44*
X72517Y83439D03*
X118999Y61722D03*
X111569Y94805D03*
X104394Y69469D03*
X70358Y100203D03*
X70485Y103124D03*
X74422Y95885D03*
X76327Y95758D03*
X76581Y106045D03*
X73914Y108331D03*
X110363Y56769D03*
X73533Y8509D03*
X112649Y100253D03*
M02*