%FSLAX23Y23*%
%MOIN*%
%SFA1B1*%

%IPPOS*%
%ADD47C,0.040157*%
%ADD48C,0.070866*%
%ADD49C,0.031496*%
%ADD50C,0.031496*%
%ADD51C,0.039370*%
%ADD52C,0.141732*%
%ADD53C,0.141732*%
%ADD54C,0.141732*%
%ADD55C,0.141732*%
%ADD56C,0.028000*%
%LNecu_freio_2024_equipe_imperador_pth_drill-1*%
%LPD*%
G54D47*
X3200Y3775D03*
Y3675D03*
Y3575D03*
Y3475D03*
Y3375D03*
Y3275D03*
Y3175D03*
Y3075D03*
Y2975D03*
Y2875D03*
Y2775D03*
Y2675D03*
Y2575D03*
Y2475D03*
Y2375D03*
X4200Y3775D03*
Y3675D03*
Y3575D03*
Y3475D03*
Y3375D03*
Y3275D03*
Y3175D03*
Y3075D03*
Y2975D03*
Y2875D03*
Y2775D03*
Y2675D03*
Y2575D03*
Y2475D03*
Y2375D03*
G54D48*
X4810Y2620D03*
Y3470D03*
G54D49*
X4855Y3925D03*
X4755D03*
G54D50*
X3005Y2585D03*
Y3058D03*
Y2665D03*
Y2743D03*
Y2822D03*
Y2901D03*
Y2979D03*
X2830Y2585D03*
Y3058D03*
Y2665D03*
Y2743D03*
Y2822D03*
Y2901D03*
Y2979D03*
G54D51*
X4035Y4545D03*
Y4380D03*
X4200Y4545D03*
Y4380D03*
X3134Y4540D03*
Y4374D03*
X3300Y4540D03*
Y4374D03*
X4529Y4545D03*
Y4380D03*
X4695Y4545D03*
Y4380D03*
G54D52*
X4955Y4630D03*
G54D53*
X4955Y2195D03*
G54D54*
X2820Y2195D03*
G54D55*
X2820Y4630D03*
G54D56*
X2855Y3285D03*
X4685Y2430D03*
X4392Y3732D03*
X4110Y2735D03*
X2770Y3945D03*
X2775Y4060D03*
X2930Y3775D03*
X3005Y3770D03*
X3015Y4175D03*
X2910Y4265D03*
X4345Y2235D03*
X2895Y3350D03*
X4435Y3947D03*
M02*