%FSLAX23Y23*%
%MOIN*%
%SFA1B1*%

%IPPOS*%
%AMD15*
4,1,8,-0.023700,-0.006900,0.023700,-0.006900,0.030600,0.000000,0.030600,0.000000,0.023700,0.006900,-0.023700,0.006900,-0.030600,0.000000,-0.030600,0.000000,-0.023700,-0.006900,0.0*
1,1,0.013780,-0.023700,0.000000*
1,1,0.013780,0.023700,0.000000*
1,1,0.013780,0.023700,0.000000*
1,1,0.013780,-0.023700,0.000000*
%
%AMD39*
4,1,8,0.023600,0.078800,-0.023600,0.078800,-0.102400,0.000000,-0.102400,0.000000,-0.023600,-0.078800,0.023600,-0.078800,0.102400,0.000000,0.102400,0.000000,0.023600,0.078800,0.0*
1,1,0.157606,0.023600,0.000000*
1,1,0.157606,-0.023600,0.000000*
1,1,0.157606,-0.023600,0.000000*
1,1,0.157606,0.023600,0.000000*
%
%AMD41*
4,1,8,0.015000,0.034000,-0.015000,0.034000,-0.034000,0.015000,-0.034000,-0.015000,-0.015000,-0.034000,0.015000,-0.034000,0.034000,-0.015000,0.034000,0.015000,0.015000,0.034000,0.0*
1,1,0.038000,0.015000,0.015000*
1,1,0.038000,-0.015000,0.015000*
1,1,0.038000,-0.015000,-0.015000*
1,1,0.038000,0.015000,-0.015000*
%
%AMD42*
4,1,8,0.019700,0.043400,-0.019700,0.043400,-0.043400,0.019700,-0.043400,-0.019700,-0.019700,-0.043400,0.019700,-0.043400,0.043400,-0.019700,0.043400,0.019700,0.019700,0.043400,0.0*
1,1,0.047370,0.019700,0.019700*
1,1,0.047370,-0.019700,0.019700*
1,1,0.047370,-0.019700,-0.019700*
1,1,0.047370,0.019700,-0.019700*
%
%ADD11R,0.021260X0.033858*%
%ADD14R,0.061279X0.013780*%
G04~CAMADD=15~8~0.0~0.0~612.8~137.8~68.9~0.0~15~0.0~0.0~0.0~0.0~0~0.0~0.0~0.0~0.0~0~0.0~0.0~0.0~180.0~612.0~137.0*
%ADD15D15*%
%ADD33R,0.033590X0.068039*%
%ADD34R,0.065086X0.055244*%
%ADD35R,0.067055X0.069023*%
%ADD36R,0.086740X0.086740*%
%ADD37C,0.086740*%
%ADD38C,0.126110*%
G04~CAMADD=39~8~0.0~0.0~2048.5~1576.1~788.0~0.0~15~0.0~0.0~0.0~0.0~0~0.0~0.0~0.0~0.0~0~0.0~0.0~0.0~0.0~2048.5~1576.1*
%ADD39D39*%
%ADD40C,0.068000*%
G04~CAMADD=41~8~0.0~0.0~680.0~680.0~190.0~0.0~15~0.0~0.0~0.0~0.0~0~0.0~0.0~0.0~0.0~0~0.0~0.0~0.0~0.0~680.0~680.0*
%ADD41D41*%
G04~CAMADD=42~8~0.0~0.0~867.4~867.4~236.9~0.0~15~0.0~0.0~0.0~0.0~0~0.0~0.0~0.0~0.0~0~0.0~0.0~0.0~0.0~867.4~867.4*
%ADD42D42*%
%ADD43C,0.068000*%
%ADD44C,0.058000*%
%LNecu_freio_2024_equipe_imperador_soldermask_top-1*%
%LPD*%
G54D11*
X4435Y4030D03*
Y4114D03*
G54D14*
X4502Y2645D03*
G54D15*
X4502Y2665D03*
Y2685D03*
Y2704D03*
Y2724D03*
X4337D03*
Y2704D03*
Y2685D03*
Y2665D03*
Y2645D03*
G54D33*
X3010Y4101D03*
X2960D03*
X2910D03*
X2860D03*
Y3888D03*
X2910D03*
X2960D03*
X3010D03*
X2855Y3443D03*
X2905D03*
X2955D03*
X3005D03*
Y3656D03*
X2955D03*
X2905D03*
X2855D03*
G54D34*
X4590Y2378D03*
Y2300D03*
X4440Y2300D03*
Y2379D03*
G54D35*
X4455Y3075D03*
X4384D03*
X3060Y3210D03*
X2989D03*
X4384Y3525D03*
X4455D03*
Y2855D03*
X4384D03*
G54D36*
X3200Y3775D03*
G54D37*
X3200Y3675D03*
Y3575D03*
Y3475D03*
Y3375D03*
Y3275D03*
Y3175D03*
Y3075D03*
Y2975D03*
Y2875D03*
Y2775D03*
Y2675D03*
Y2575D03*
Y2475D03*
Y2375D03*
X4200Y3775D03*
Y3675D03*
Y3575D03*
Y3475D03*
Y3375D03*
Y3275D03*
Y3175D03*
Y3075D03*
Y2975D03*
Y2875D03*
Y2775D03*
Y2675D03*
Y2575D03*
Y2475D03*
Y2375D03*
X4035Y4380D03*
X4200Y4545D03*
Y4380D03*
X3134Y4374D03*
X3300Y4540D03*
Y4374D03*
X4529Y4380D03*
X4695Y4545D03*
Y4380D03*
G54D38*
X3216Y2240D03*
X4181D03*
Y4089D03*
X3216D03*
G54D39*
X4810Y2620D03*
Y3470D03*
G54D40*
X4855Y3925D03*
X4755D03*
X3005Y2585D03*
Y2665D03*
Y2743D03*
Y2822D03*
Y2901D03*
Y2979D03*
X2830Y2585D03*
Y2665D03*
Y2743D03*
Y2822D03*
Y2901D03*
Y2979D03*
G54D41*
X3005Y3058D03*
X2830D03*
G54D42*
X4035Y4545D03*
X3134Y4540D03*
X4529Y4545D03*
G54D43*
X4955Y4630D03*
Y2195D03*
X2820D03*
Y4630D03*
G54D44*
X2855Y3285D03*
X4685Y2430D03*
X4392Y3732D03*
X4110Y2735D03*
X2770Y3945D03*
X2775Y4060D03*
X2930Y3775D03*
X3005Y3770D03*
X3015Y4175D03*
X2910Y4265D03*
X4345Y2235D03*
X2895Y3350D03*
X4435Y3947D03*
M02*