%FSLAX23Y23*%
%MOIN*%
%SFA1B1*%

%IPPOS*%
%AMD23*
4,1,8,0.023600,0.074800,-0.023600,0.074800,-0.098400,0.000000,-0.098400,0.000000,-0.023600,-0.074800,0.023600,-0.074800,0.098400,0.000000,0.098400,0.000000,0.023600,0.074800,0.0*
1,1,0.149606,0.023600,0.000000*
1,1,0.149606,-0.023600,0.000000*
1,1,0.149606,-0.023600,0.000000*
1,1,0.149606,0.023600,0.000000*
%
%AMD25*
4,1,8,0.015000,0.030000,-0.015000,0.030000,-0.030000,0.015000,-0.030000,-0.015000,-0.015000,-0.030000,0.015000,-0.030000,0.030000,-0.015000,0.030000,0.015000,0.015000,0.030000,0.0*
1,1,0.030000,0.015000,0.015000*
1,1,0.030000,-0.015000,0.015000*
1,1,0.030000,-0.015000,-0.015000*
1,1,0.030000,0.015000,-0.015000*
%
%AMD26*
4,1,8,0.019700,0.039400,-0.019700,0.039400,-0.039400,0.019700,-0.039400,-0.019700,-0.019700,-0.039400,0.019700,-0.039400,0.039400,-0.019700,0.039400,0.019700,0.019700,0.039400,0.0*
1,1,0.039370,0.019700,0.019700*
1,1,0.039370,-0.019700,0.019700*
1,1,0.039370,-0.019700,-0.019700*
1,1,0.039370,0.019700,-0.019700*
%
%ADD10C,0.011811*%
%ADD17C,0.015748*%
%ADD18C,0.007874*%
%ADD19C,0.019685*%
%ADD20R,0.078740X0.078740*%
%ADD21C,0.078740*%
%ADD22C,0.118110*%
G04~CAMADD=23~8~0.0~0.0~1968.5~1496.1~748.0~0.0~15~0.0~0.0~0.0~0.0~0~0.0~0.0~0.0~0.0~0~0.0~0.0~0.0~0.0~1968.5~1496.1*
%ADD23D23*%
%ADD24C,0.060000*%
G04~CAMADD=25~8~0.0~0.0~600.0~600.0~150.0~0.0~15~0.0~0.0~0.0~0.0~0~0.0~0.0~0.0~0.0~0~0.0~0.0~0.0~0.0~600.0~600.0*
%ADD25D25*%
G04~CAMADD=26~8~0.0~0.0~787.4~787.4~196.9~0.0~15~0.0~0.0~0.0~0.0~0~0.0~0.0~0.0~0.0~0~0.0~0.0~0.0~0.0~787.4~787.4*
%ADD26D26*%
%ADD27C,0.060000*%
%ADD28C,0.050000*%
%LNecu_freio_2024_equipe_imperador_copper_signal_bot-1*%
%LPD*%
G36*
X5090Y2065D02*
X4260D01*
Y2265*
X4264Y2268*
X4315Y2239*
X4315Y2238*
Y2231*
X4317Y2223*
X4321Y2216*
X4326Y2211*
X4333Y2207*
X4341Y2205*
X4348*
X4356Y2207*
X4363Y2211*
X4368Y2216*
X4372Y2223*
X4374Y2231*
Y2238*
X4372Y2246*
X4368Y2253*
X4363Y2258*
X4356Y2262*
X4348Y2264*
X4341*
X4333Y2262*
X4326Y2258*
X4326Y2258*
X4260Y2296*
Y2525*
X3140*
X3135Y2520*
Y2065*
X2680*
Y4775*
X5090*
Y2065*
G37*
%LNecu_freio_2024_equipe_imperador_copper_signal_bot-2*%
%LPC*%
G36*
X4210Y4593D02*
Y4555D01*
X4248*
X4246Y4564*
X4239Y4575*
X4230Y4584*
X4219Y4591*
X4210Y4593*
G37*
G36*
X4190D02*
X4181Y4591D01*
X4170Y4584*
X4160Y4575*
X4154Y4564*
X4151Y4555*
X4190*
Y4593*
G37*
G36*
X4962Y4705D02*
X4947D01*
X4932Y4702*
X4919Y4697*
X4906Y4688*
X4896Y4678*
X4887Y4665*
X4882Y4652*
X4879Y4637*
Y4622*
X4882Y4607*
X4887Y4594*
X4896Y4581*
X4906Y4571*
X4919Y4562*
X4932Y4557*
X4947Y4554*
X4962*
X4977Y4557*
X4990Y4562*
X5003Y4571*
X5013Y4581*
X5022Y4594*
X5027Y4607*
X5030Y4622*
Y4637*
X5027Y4652*
X5022Y4665*
X5013Y4678*
X5003Y4688*
X4990Y4697*
X4977Y4702*
X4962Y4705*
G37*
G36*
X2827D02*
X2812D01*
X2797Y4702*
X2784Y4697*
X2771Y4688*
X2761Y4678*
X2752Y4665*
X2747Y4652*
X2744Y4637*
Y4622*
X2747Y4607*
X2752Y4594*
X2761Y4581*
X2771Y4571*
X2784Y4562*
X2797Y4557*
X2812Y4554*
X2827*
X2842Y4557*
X2855Y4562*
X2868Y4571*
X2878Y4581*
X2887Y4594*
X2892Y4607*
X2895Y4622*
Y4637*
X2892Y4652*
X2887Y4665*
X2878Y4678*
X2868Y4688*
X2855Y4697*
X2842Y4702*
X2827Y4705*
G37*
G36*
X4549Y4590D02*
X4509D01*
X4500Y4588*
X4492Y4582*
X4486Y4574*
X4484Y4565*
Y4525*
X4486Y4516*
X4492Y4507*
X4500Y4502*
X4509Y4500*
X4549*
X4558Y4502*
X4567Y4507*
X4572Y4516*
X4574Y4525*
Y4565*
X4572Y4574*
X4567Y4582*
X4558Y4588*
X4549Y4590*
G37*
G36*
X4054D02*
X4015D01*
X4005Y4588*
X3997Y4582*
X3992Y4574*
X3990Y4565*
Y4525*
X3992Y4516*
X3997Y4507*
X4005Y4502*
X4015Y4500*
X4054*
X4064Y4502*
X4072Y4507*
X4077Y4516*
X4079Y4525*
Y4565*
X4077Y4574*
X4072Y4582*
X4064Y4588*
X4054Y4590*
G37*
G36*
X4248Y4535D02*
X4210D01*
Y4496*
X4219Y4499*
X4230Y4505*
X4239Y4515*
X4246Y4526*
X4248Y4535*
G37*
G36*
X4190D02*
X4151D01*
X4154Y4526*
X4160Y4515*
X4170Y4505*
X4181Y4499*
X4190Y4496*
Y4535*
G37*
G36*
X3305Y4584D02*
X3294D01*
X3282Y4581*
X3272Y4575*
X3264Y4567*
X3258Y4557*
X3255Y4545*
Y4534*
X3258Y4522*
X3264Y4512*
X3272Y4504*
X3282Y4498*
X3294Y4495*
X3305*
X3317Y4498*
X3327Y4504*
X3335Y4512*
X3341Y4522*
X3344Y4534*
Y4545*
X3341Y4557*
X3335Y4567*
X3327Y4575*
X3317Y4581*
X3305Y4584*
G37*
G36*
X3154Y4584D02*
X3114D01*
X3105Y4582*
X3097Y4577*
X3091Y4569*
X3089Y4559*
Y4520*
X3091Y4510*
X3097Y4502*
X3105Y4497*
X3114Y4495*
X3154*
X3163Y4497*
X3172Y4502*
X3177Y4510*
X3179Y4520*
Y4559*
X3177Y4569*
X3172Y4577*
X3163Y4582*
X3154Y4584*
G37*
G36*
X4704Y4428D02*
Y4389D01*
X4743*
X4741Y4399*
X4734Y4410*
X4725Y4419*
X4714Y4426*
X4704Y4428*
G37*
G36*
X4685D02*
X4675Y4426D01*
X4664Y4419*
X4655Y4410*
X4648Y4399*
X4646Y4389*
X4685*
Y4428*
G37*
G36*
X4539D02*
Y4389D01*
X4578*
X4575Y4399*
X4569Y4410*
X4559Y4419*
X4548Y4426*
X4539Y4428*
G37*
G36*
X4519D02*
X4510Y4426D01*
X4499Y4419*
X4490Y4410*
X4483Y4399*
X4481Y4389*
X4519*
Y4428*
G37*
G36*
X4206Y4424D02*
X4194D01*
X4183Y4421*
X4173Y4415*
X4164Y4407*
X4159Y4397*
X4156Y4385*
Y4374*
X4159Y4362*
X4164Y4352*
X4173Y4344*
X4183Y4338*
X4194Y4335*
X4206*
X4217Y4338*
X4227Y4344*
X4235Y4352*
X4241Y4362*
X4244Y4374*
Y4385*
X4241Y4397*
X4235Y4407*
X4227Y4415*
X4217Y4421*
X4206Y4424*
G37*
G36*
X4040D02*
X4029D01*
X4017Y4421*
X4007Y4415*
X3999Y4407*
X3993Y4397*
X3990Y4385*
Y4374*
X3993Y4362*
X3999Y4352*
X4007Y4344*
X4017Y4338*
X4029Y4335*
X4040*
X4052Y4338*
X4062Y4344*
X4070Y4352*
X4076Y4362*
X4079Y4374*
Y4385*
X4076Y4397*
X4070Y4407*
X4062Y4415*
X4052Y4421*
X4040Y4424*
G37*
G36*
X4743Y4370D02*
X4704D01*
Y4331*
X4714Y4333*
X4725Y4340*
X4734Y4349*
X4741Y4360*
X4743Y4370*
G37*
G36*
X4685D02*
X4646D01*
X4648Y4360*
X4655Y4349*
X4664Y4340*
X4675Y4333*
X4685Y4331*
Y4370*
G37*
G36*
X4578D02*
X4539D01*
Y4331*
X4548Y4333*
X4559Y4340*
X4569Y4349*
X4575Y4360*
X4578Y4370*
G37*
G36*
X4519D02*
X4481D01*
X4483Y4360*
X4490Y4349*
X4499Y4340*
X4510Y4333*
X4519Y4331*
Y4370*
G37*
G36*
X3190Y4444D02*
X2990D01*
X2986Y4443*
X2983Y4441*
X2903Y4361*
X2901Y4358*
X2900Y4355*
Y4293*
X2898Y4292*
X2891Y4288*
X2886Y4283*
X2882Y4276*
X2880Y4268*
Y4261*
X2882Y4253*
X2886Y4246*
X2891Y4241*
X2898Y4237*
X2906Y4235*
X2913*
X2921Y4237*
X2928Y4241*
X2933Y4246*
X2937Y4253*
X2939Y4261*
Y4268*
X2937Y4276*
X2933Y4283*
X2928Y4288*
X2921Y4292*
X2919Y4293*
Y4351*
X2993Y4425*
X3186*
X3243Y4368*
X3246Y4366*
X3250Y4365*
X3256*
X3258Y4357*
X3264Y4347*
X3272Y4339*
X3282Y4333*
X3294Y4330*
X3305*
X3317Y4333*
X3327Y4339*
X3335Y4347*
X3341Y4357*
X3344Y4368*
Y4380*
X3341Y4391*
X3335Y4401*
X3327Y4410*
X3317Y4415*
X3305Y4418*
X3294*
X3282Y4415*
X3272Y4410*
X3264Y4401*
X3258Y4391*
X3257Y4387*
X3251Y4385*
X3196Y4441*
X3193Y4443*
X3190Y4444*
G37*
G36*
X3140Y4418D02*
X3128D01*
X3117Y4415*
X3107Y4410*
X3099Y4401*
X3093Y4391*
X3090Y4380*
Y4368*
X3093Y4357*
X3096Y4352*
X2959Y4215*
X2959Y4215*
X2955Y4216*
X2820*
X2815Y4215*
X2812Y4212*
X2712Y4112*
X2709Y4109*
X2708Y4105*
Y3011*
X2709Y3006*
X2712Y3003*
X2798Y2916*
X2797Y2914*
X2795Y2905*
Y2896*
X2797Y2887*
X2802Y2879*
X2808Y2873*
X2816Y2868*
X2825Y2866*
X2834*
X2843Y2868*
X2851Y2873*
X2857Y2879*
X2862Y2887*
X2864Y2896*
Y2905*
X2862Y2914*
X2857Y2922*
X2851Y2929*
X2843Y2933*
X2837Y2935*
Y2940*
X2845Y2942*
X2854Y2947*
X2862Y2955*
X2867Y2964*
X2868Y2970*
X2791*
X2792Y2964*
X2797Y2956*
X2793Y2953*
X2731Y3015*
Y4100*
X2824Y4193*
X2950*
X2969Y4174*
X2973Y4172*
X2977Y4171*
X2985*
Y4171*
X2987Y4163*
X2991Y4156*
X2996Y4151*
X3003Y4147*
X3011Y4145*
X3018*
X3026Y4147*
X3033Y4151*
X3038Y4156*
X3042Y4163*
X3044Y4171*
Y4178*
X3042Y4186*
X3038Y4193*
X3033Y4198*
X3026Y4202*
X3018Y4204*
X3011*
X3003Y4202*
X2996Y4198*
X2991Y4193*
X2991Y4193*
X2982*
X2975Y4200*
X3112Y4336*
X3117Y4333*
X3128Y4330*
X3140*
X3151Y4333*
X3161Y4339*
X3170Y4347*
X3175Y4357*
X3178Y4368*
Y4380*
X3175Y4391*
X3170Y4401*
X3161Y4410*
X3151Y4415*
X3140Y4418*
G37*
G36*
X4187Y4153D02*
X4175D01*
X4162Y4150*
X4151Y4145*
X4140Y4138*
X4131Y4129*
X4124Y4119*
X4119Y4107*
X4117Y4095*
Y4082*
X4119Y4070*
X4124Y4058*
X4131Y4048*
X4140Y4039*
X4151Y4032*
X4162Y4027*
X4175Y4025*
X4187*
X4200Y4027*
X4211Y4032*
X4222Y4039*
X4231Y4048*
X4238Y4058*
X4243Y4070*
X4245Y4082*
Y4095*
X4243Y4107*
X4238Y4119*
X4231Y4129*
X4222Y4138*
X4211Y4145*
X4200Y4150*
X4187Y4153*
G37*
G36*
X3222D02*
X3210D01*
X3197Y4150*
X3186Y4145*
X3175Y4138*
X3166Y4129*
X3159Y4119*
X3155Y4107*
X3152Y4095*
Y4082*
X3155Y4070*
X3159Y4058*
X3166Y4048*
X3175Y4039*
X3186Y4032*
X3197Y4027*
X3210Y4025*
X3222*
X3235Y4027*
X3246Y4032*
X3257Y4039*
X3266Y4048*
X3273Y4058*
X3278Y4070*
X3280Y4082*
Y4095*
X3278Y4107*
X3273Y4119*
X3266Y4129*
X3257Y4138*
X3246Y4145*
X3235Y4150*
X3222Y4153*
G37*
G36*
X4859Y3959D02*
X4850D01*
X4841Y3957*
X4833Y3952*
X4827Y3946*
X4822Y3938*
X4820Y3929*
Y3920*
X4822Y3911*
X4827Y3903*
X4833Y3897*
X4841Y3892*
X4850Y3890*
X4859*
X4868Y3892*
X4876Y3897*
X4882Y3903*
X4887Y3911*
X4889Y3920*
Y3929*
X4887Y3938*
X4882Y3946*
X4876Y3952*
X4868Y3957*
X4859Y3959*
G37*
G36*
X4700Y4589D02*
X4689D01*
X4677Y4586*
X4667Y4580*
X4659Y4572*
X4653Y4562*
X4650Y4551*
Y4539*
X4653Y4528*
X4659Y4518*
X4667Y4509*
X4677Y4504*
X4689Y4501*
X4700*
X4712Y4504*
X4715Y4506*
X4771Y4449*
Y4366*
X4220Y3815*
X4217Y3817*
X4205Y3820*
X4194*
X4182Y3817*
X4179Y3815*
X4040Y3954*
X4035Y3957*
X4030Y3958*
X2797*
X2793Y3963*
X2788Y3968*
X2785Y3970*
Y4031*
X2786Y4032*
X2793Y4036*
X2798Y4041*
X2802Y4048*
X2804Y4056*
Y4063*
X2802Y4071*
X2798Y4078*
X2793Y4083*
X2786Y4087*
X2778Y4089*
X2771*
X2763Y4087*
X2756Y4083*
X2751Y4078*
X2747Y4071*
X2745Y4063*
Y4056*
X2747Y4048*
X2751Y4041*
X2756Y4036*
X2759Y4034*
Y3973*
X2758Y3972*
X2751Y3968*
X2746Y3963*
X2742Y3956*
X2740Y3948*
Y3941*
X2742Y3933*
X2746Y3926*
X2751Y3921*
X2758Y3917*
X2766Y3915*
X2773*
X2781Y3917*
X2788Y3921*
X2793Y3926*
X2797Y3931*
X4025*
X4160Y3796*
X4158Y3792*
X4155Y3781*
Y3769*
X4158Y3758*
X4164Y3748*
X4172Y3740*
X4182Y3734*
X4194Y3731*
X4205*
X4217Y3734*
X4227Y3740*
X4235Y3748*
X4241Y3758*
X4244Y3769*
Y3781*
X4241Y3792*
X4239Y3796*
X4402Y3959*
X4406Y3957*
X4405Y3950*
Y3943*
X4407Y3935*
X4411Y3928*
X4416Y3923*
X4423Y3919*
X4431Y3917*
X4438*
X4442Y3918*
X4589Y3770*
Y2980*
X4591Y2974*
X4594Y2969*
X4794Y2768*
Y2700*
X4786*
X4770Y2698*
X4755Y2694*
X4741Y2686*
X4729Y2676*
X4719Y2664*
X4712Y2650*
X4707Y2635*
X4706Y2620*
X4707Y2604*
X4712Y2589*
X4719Y2575*
X4729Y2563*
X4741Y2553*
X4755Y2545*
X4770Y2541*
X4786Y2539*
X4833*
X4849Y2541*
X4864Y2545*
X4878Y2553*
X4890Y2563*
X4900Y2575*
X4907Y2589*
X4912Y2604*
X4913Y2620*
X4912Y2635*
X4907Y2650*
X4900Y2664*
X4890Y2676*
X4878Y2686*
X4864Y2694*
X4849Y2698*
X4833Y2700*
X4825*
Y2775*
X4823Y2780*
X4820Y2785*
X4620Y2986*
Y3777*
X4618Y3782*
X4615Y3787*
X4463Y3939*
X4464Y3943*
Y3950*
X4462Y3958*
X4458Y3965*
X4453Y3970*
X4446Y3974*
X4438Y3976*
X4431*
X4424Y3975*
X4422Y3979*
X4794Y4351*
X4797Y4355*
X4798Y4360*
Y4455*
X4797Y4460*
X4794Y4464*
X4734Y4524*
X4736Y4528*
X4739Y4539*
Y4551*
X4736Y4562*
X4730Y4572*
X4722Y4580*
X4712Y4586*
X4700Y4589*
G37*
G36*
X3244Y3820D02*
X3155D01*
Y3731*
X3244*
Y3820*
G37*
G36*
X4209Y3724D02*
Y3685D01*
X4248*
X4246Y3694*
X4239Y3706*
X4230Y3715*
X4219Y3721*
X4209Y3724*
G37*
G36*
X4190D02*
X4180Y3721D01*
X4169Y3715*
X4160Y3706*
X4153Y3694*
X4151Y3685*
X4190*
Y3724*
G37*
G36*
X3209D02*
Y3685D01*
X3248*
X3246Y3694*
X3239Y3706*
X3230Y3715*
X3219Y3721*
X3209Y3724*
G37*
G36*
X3190D02*
X3180Y3721D01*
X3169Y3715*
X3160Y3706*
X3153Y3694*
X3151Y3685*
X3190*
Y3724*
G37*
G36*
X4248Y3665D02*
X4209D01*
Y3627*
X4219Y3629*
X4230Y3636*
X4239Y3645*
X4246Y3656*
X4248Y3665*
G37*
G36*
X4190D02*
X4151D01*
X4153Y3656*
X4160Y3645*
X4169Y3636*
X4180Y3629*
X4190Y3627*
Y3665*
G37*
G36*
X3248D02*
X3209D01*
Y3627*
X3219Y3629*
X3230Y3636*
X3239Y3645*
X3246Y3656*
X3248Y3665*
G37*
G36*
X3190D02*
X3151D01*
X3153Y3656*
X3160Y3645*
X3169Y3636*
X3180Y3629*
X3190Y3627*
Y3665*
G37*
G36*
X4205Y3620D02*
X4194D01*
X4182Y3617*
X4172Y3611*
X4164Y3603*
X4158Y3592*
X4155Y3581*
Y3569*
X4158Y3558*
X4164Y3548*
X4172Y3540*
X4182Y3534*
X4194Y3531*
X4205*
X4217Y3534*
X4227Y3540*
X4235Y3548*
X4241Y3558*
X4244Y3569*
Y3581*
X4241Y3592*
X4235Y3603*
X4227Y3611*
X4217Y3617*
X4205Y3620*
G37*
G36*
X3205D02*
X3194D01*
X3182Y3617*
X3172Y3611*
X3164Y3603*
X3158Y3592*
X3155Y3581*
Y3569*
X3158Y3558*
X3164Y3548*
X3172Y3540*
X3182Y3534*
X3194Y3531*
X3205*
X3217Y3534*
X3227Y3540*
X3235Y3548*
X3241Y3558*
X3244Y3569*
Y3581*
X3241Y3592*
X3235Y3603*
X3227Y3611*
X3217Y3617*
X3205Y3620*
G37*
G36*
X4205Y3520D02*
X4194D01*
X4182Y3517*
X4172Y3511*
X4164Y3503*
X4158Y3492*
X4155Y3481*
Y3469*
X4158Y3458*
X4164Y3448*
X4172Y3440*
X4182Y3434*
X4194Y3431*
X4205*
X4217Y3434*
X4227Y3440*
X4235Y3448*
X4241Y3458*
X4244Y3469*
Y3481*
X4241Y3492*
X4235Y3503*
X4227Y3511*
X4217Y3517*
X4205Y3520*
G37*
G36*
X3205D02*
X3194D01*
X3182Y3517*
X3172Y3511*
X3164Y3503*
X3158Y3492*
X3155Y3481*
Y3469*
X3158Y3458*
X3164Y3448*
X3172Y3440*
X3182Y3434*
X3194Y3431*
X3205*
X3217Y3434*
X3227Y3440*
X3235Y3448*
X3241Y3458*
X3244Y3469*
Y3481*
X3241Y3492*
X3235Y3503*
X3227Y3511*
X3217Y3517*
X3205Y3520*
G37*
G36*
X4759Y3959D02*
X4750D01*
X4741Y3957*
X4733Y3952*
X4727Y3946*
X4722Y3938*
X4720Y3929*
Y3920*
X4722Y3911*
X4727Y3903*
X4733Y3897*
X4739Y3893*
Y3830*
X4741Y3824*
X4744Y3819*
X4794Y3768*
Y3550*
X4786*
X4770Y3548*
X4755Y3544*
X4741Y3536*
X4729Y3526*
X4719Y3514*
X4712Y3500*
X4707Y3485*
X4706Y3470*
X4707Y3454*
X4712Y3439*
X4719Y3425*
X4729Y3413*
X4741Y3403*
X4755Y3395*
X4770Y3391*
X4786Y3389*
X4833*
X4849Y3391*
X4864Y3395*
X4878Y3403*
X4890Y3413*
X4900Y3425*
X4907Y3439*
X4912Y3454*
X4913Y3470*
X4912Y3485*
X4907Y3500*
X4900Y3514*
X4890Y3526*
X4878Y3536*
X4864Y3544*
X4849Y3548*
X4833Y3550*
X4825*
Y3775*
X4823Y3780*
X4820Y3785*
X4820*
X4770Y3836*
Y3893*
X4776Y3897*
X4782Y3903*
X4787Y3911*
X4789Y3920*
Y3929*
X4787Y3938*
X4782Y3946*
X4776Y3952*
X4768Y3957*
X4759Y3959*
G37*
G36*
X4205Y3420D02*
X4194D01*
X4182Y3417*
X4172Y3411*
X4164Y3403*
X4158Y3392*
X4155Y3381*
Y3369*
X4158Y3358*
X4164Y3348*
X4172Y3340*
X4182Y3334*
X4194Y3331*
X4205*
X4217Y3334*
X4227Y3340*
X4235Y3348*
X4241Y3358*
X4244Y3369*
Y3381*
X4241Y3392*
X4235Y3403*
X4227Y3411*
X4217Y3417*
X4205Y3420*
G37*
G36*
X3205D02*
X3194D01*
X3182Y3417*
X3172Y3411*
X3164Y3403*
X3158Y3392*
X3155Y3381*
Y3369*
X3158Y3358*
X3164Y3348*
X3172Y3340*
X3182Y3334*
X3194Y3331*
X3205*
X3217Y3334*
X3227Y3340*
X3235Y3348*
X3241Y3358*
X3244Y3369*
Y3381*
X3241Y3392*
X3235Y3403*
X3227Y3411*
X3217Y3417*
X3205Y3420*
G37*
G36*
X2898Y3379D02*
X2891D01*
X2883Y3377*
X2876Y3373*
X2871Y3368*
X2867Y3361*
X2865Y3353*
Y3346*
X2867Y3338*
X2871Y3331*
X2876Y3326*
X2883Y3322*
X2883Y3321*
Y3312*
X2878Y3310*
X2876Y3313*
X2868Y3317*
X2864Y3318*
Y3285*
Y3251*
X2868Y3252*
X2876Y3256*
X2878Y3259*
X2883Y3257*
Y3255*
X2884Y3250*
X2887Y3247*
X3048Y3085*
Y2989*
X3043Y2989*
X3042Y2995*
X3037Y3004*
X3029Y3011*
X3020Y3017*
X3016Y3018*
X3016Y3023*
X3020*
X3027Y3024*
X3034Y3029*
X3038Y3035*
X3040Y3043*
Y3073*
X3038Y3081*
X3034Y3088*
X3027Y3092*
X3020Y3094*
X2990*
X2982Y3092*
X2975Y3088*
X2971Y3081*
X2969Y3073*
Y3071*
X2865*
Y3073*
X2863Y3081*
X2859Y3088*
X2852Y3092*
X2845Y3094*
X2815*
X2807Y3092*
X2800Y3088*
X2796Y3081*
X2794Y3073*
Y3043*
X2796Y3035*
X2800Y3029*
X2807Y3024*
X2815Y3023*
X2818*
X2818Y3018*
X2814Y3017*
X2805Y3011*
X2797Y3004*
X2792Y2995*
X2791Y2989*
X2868*
X2867Y2995*
X2862Y3004*
X2854Y3011*
X2845Y3017*
X2841Y3018*
X2841Y3023*
X2845*
X2852Y3024*
X2859Y3029*
X2863Y3035*
X2865Y3043*
Y3045*
X2969*
Y3043*
X2971Y3035*
X2975Y3029*
X2982Y3024*
X2990Y3023*
X2993*
X2993Y3018*
X2989Y3017*
X2980Y3011*
X2972Y3004*
X2967Y2995*
X2966Y2989*
X3005*
Y2970*
X2966*
X2967Y2964*
X2972Y2955*
X2980Y2947*
X2989Y2942*
X2997Y2940*
Y2935*
X2991Y2933*
X2983Y2929*
X2977Y2922*
X2972Y2914*
X2970Y2905*
Y2896*
X2972Y2887*
X2977Y2879*
X2983Y2873*
X2991Y2868*
X3000Y2866*
X3009*
X3018Y2868*
X3026Y2873*
X3032Y2879*
X3037Y2887*
X3039Y2896*
Y2905*
X3037Y2914*
X3036Y2916*
X3067Y2948*
X3070Y2951*
X3071Y2956*
Y3090*
X3070Y3094*
X3067Y3097*
X2906Y3259*
Y3321*
X2906Y3322*
X2913Y3326*
X2918Y3331*
X2922Y3338*
X2924Y3346*
Y3353*
X2922Y3361*
X2918Y3368*
X2913Y3373*
X2906Y3377*
X2898Y3379*
G37*
G36*
X2845Y3318D02*
X2841Y3317D01*
X2833Y3313*
X2826Y3306*
X2822Y3298*
X2821Y3294*
X2845*
Y3318*
G37*
G36*
Y3275D02*
X2821D01*
X2822Y3271*
X2826Y3263*
X2833Y3256*
X2841Y3252*
X2845Y3251*
Y3275*
G37*
G36*
X4205Y3320D02*
X4194D01*
X4182Y3317*
X4172Y3311*
X4164Y3303*
X4158Y3292*
X4155Y3281*
Y3269*
X4158Y3258*
X4164Y3248*
X4172Y3240*
X4182Y3234*
X4194Y3231*
X4205*
X4217Y3234*
X4227Y3240*
X4235Y3248*
X4241Y3258*
X4244Y3269*
Y3281*
X4241Y3292*
X4235Y3303*
X4227Y3311*
X4217Y3317*
X4205Y3320*
G37*
G36*
X3205D02*
X3194D01*
X3182Y3317*
X3172Y3311*
X3164Y3303*
X3158Y3292*
X3155Y3281*
Y3269*
X3158Y3258*
X3164Y3248*
X3172Y3240*
X3182Y3234*
X3194Y3231*
X3205*
X3217Y3234*
X3227Y3240*
X3235Y3248*
X3241Y3258*
X3244Y3269*
Y3281*
X3241Y3292*
X3235Y3303*
X3227Y3311*
X3217Y3317*
X3205Y3320*
G37*
G36*
X4205Y3220D02*
X4194D01*
X4182Y3217*
X4172Y3211*
X4164Y3203*
X4158Y3192*
X4155Y3181*
Y3169*
X4158Y3158*
X4164Y3148*
X4172Y3140*
X4182Y3134*
X4194Y3131*
X4205*
X4217Y3134*
X4227Y3140*
X4235Y3148*
X4241Y3158*
X4244Y3169*
Y3181*
X4241Y3192*
X4235Y3203*
X4227Y3211*
X4217Y3217*
X4205Y3220*
G37*
G36*
X3205D02*
X3194D01*
X3182Y3217*
X3172Y3211*
X3164Y3203*
X3158Y3192*
X3155Y3181*
Y3169*
X3158Y3158*
X3164Y3148*
X3172Y3140*
X3182Y3134*
X3194Y3131*
X3205*
X3217Y3134*
X3227Y3140*
X3235Y3148*
X3241Y3158*
X3244Y3169*
Y3181*
X3241Y3192*
X3235Y3203*
X3227Y3211*
X3217Y3217*
X3205Y3220*
G37*
G36*
X4205Y3120D02*
X4194D01*
X4182Y3117*
X4172Y3111*
X4164Y3103*
X4158Y3092*
X4155Y3081*
Y3069*
X4158Y3058*
X4164Y3048*
X4172Y3040*
X4182Y3034*
X4194Y3031*
X4205*
X4217Y3034*
X4227Y3040*
X4235Y3048*
X4241Y3058*
X4244Y3069*
Y3081*
X4241Y3092*
X4235Y3103*
X4227Y3111*
X4217Y3117*
X4205Y3120*
G37*
G36*
X3040Y3836D02*
X2980D01*
X2975Y3835*
X2972Y3832*
X2942Y3802*
X2941Y3802*
X2933Y3804*
X2926*
X2918Y3802*
X2911Y3798*
X2906Y3793*
X2902Y3786*
X2900Y3778*
Y3771*
X2902Y3763*
X2906Y3756*
X2911Y3751*
X2918Y3747*
X2926Y3745*
X2933*
X2941Y3747*
X2948Y3751*
X2953Y3756*
X2957Y3763*
X2959Y3771*
Y3778*
X2957Y3786*
X2957Y3787*
X2984Y3813*
X3035*
X3118Y3730*
Y3145*
X3119Y3141*
X3122Y3138*
X3161Y3098*
X3158Y3092*
X3155Y3081*
Y3069*
X3158Y3058*
X3164Y3048*
X3172Y3040*
X3182Y3034*
X3194Y3031*
X3205*
X3217Y3034*
X3227Y3040*
X3235Y3048*
X3241Y3058*
X3244Y3069*
Y3081*
X3241Y3092*
X3235Y3103*
X3227Y3111*
X3217Y3117*
X3205Y3120*
X3194*
X3182Y3117*
X3177Y3113*
X3141Y3150*
Y3735*
X3140Y3739*
X3137Y3742*
X3047Y3832*
X3044Y3835*
X3040Y3836*
G37*
G36*
X4205Y3020D02*
X4194D01*
X4182Y3017*
X4172Y3011*
X4164Y3003*
X4158Y2992*
X4155Y2981*
Y2969*
X4158Y2958*
X4164Y2948*
X4172Y2940*
X4182Y2934*
X4194Y2931*
X4205*
X4217Y2934*
X4227Y2940*
X4235Y2948*
X4241Y2958*
X4244Y2969*
Y2981*
X4241Y2992*
X4235Y3003*
X4227Y3011*
X4217Y3017*
X4205Y3020*
G37*
G36*
X3008Y3799D02*
X3001D01*
X2993Y3797*
X2986Y3793*
X2981Y3788*
X2977Y3781*
X2975Y3773*
Y3766*
X2977Y3758*
X2981Y3751*
X2986Y3746*
X2993Y3742*
X3001Y3740*
X3008*
X3016Y3742*
X3017Y3742*
X3073Y3685*
Y3114*
X3074Y3109*
X3077Y3106*
X3103Y3080*
Y2982*
X3103Y2978*
X3106Y2974*
X3113Y2968*
X3116Y2965*
X3121Y2964*
X3121*
X3157*
X3158Y2958*
X3164Y2948*
X3172Y2940*
X3182Y2934*
X3194Y2931*
X3205*
X3217Y2934*
X3227Y2940*
X3235Y2948*
X3241Y2958*
X3244Y2969*
Y2981*
X3241Y2992*
X3235Y3003*
X3227Y3011*
X3217Y3017*
X3205Y3020*
X3194*
X3182Y3017*
X3172Y3011*
X3164Y3003*
X3158Y2992*
X3157Y2986*
X3125*
X3125Y2987*
Y3085*
X3124Y3089*
X3121Y3092*
X3096Y3118*
Y3690*
X3095Y3694*
X3092Y3697*
X3032Y3757*
X3032Y3758*
X3034Y3766*
Y3773*
X3032Y3781*
X3028Y3788*
X3023Y3793*
X3016Y3797*
X3008Y3799*
G37*
G36*
X4205Y2920D02*
X4194D01*
X4182Y2917*
X4172Y2911*
X4164Y2903*
X4158Y2892*
X4155Y2881*
Y2869*
X4158Y2858*
X4164Y2848*
X4172Y2840*
X4182Y2834*
X4194Y2831*
X4205*
X4217Y2834*
X4227Y2840*
X4235Y2848*
X4241Y2858*
X4244Y2869*
Y2881*
X4241Y2892*
X4235Y2903*
X4227Y2911*
X4217Y2917*
X4205Y2920*
G37*
G36*
X3205D02*
X3194D01*
X3182Y2917*
X3172Y2911*
X3164Y2903*
X3158Y2892*
X3157Y2886*
X3140*
X3136Y2886*
X3133Y2883*
X3097Y2847*
X3094Y2844*
X3093Y2840*
Y2779*
X3069Y2754*
X3038*
X3037Y2757*
X3032Y2765*
X3026Y2771*
X3018Y2776*
X3009Y2778*
X3000*
X2991Y2776*
X2983Y2771*
X2977Y2765*
X2972Y2757*
X2971Y2754*
X2863*
X2862Y2757*
X2857Y2765*
X2851Y2771*
X2843Y2776*
X2834Y2778*
X2825*
X2816Y2776*
X2808Y2771*
X2802Y2765*
X2797Y2757*
X2795Y2748*
Y2739*
X2797Y2730*
X2802Y2722*
X2808Y2715*
X2816Y2711*
X2825Y2708*
X2834*
X2843Y2711*
X2851Y2715*
X2857Y2722*
X2862Y2730*
X2863Y2732*
X2971*
X2972Y2730*
X2977Y2722*
X2983Y2715*
X2991Y2711*
X3000Y2708*
X3009*
X3018Y2711*
X3026Y2715*
X3032Y2722*
X3037Y2730*
X3038Y2732*
X3073*
X3077Y2733*
X3081Y2735*
X3112Y2767*
X3115Y2770*
X3116Y2775*
Y2835*
X3145Y2864*
X3157*
X3158Y2858*
X3164Y2848*
X3172Y2840*
X3182Y2834*
X3194Y2831*
X3205*
X3217Y2834*
X3227Y2840*
X3235Y2848*
X3241Y2858*
X3244Y2869*
Y2881*
X3241Y2892*
X3235Y2903*
X3227Y2911*
X3217Y2917*
X3205Y2920*
G37*
G36*
X3009Y2857D02*
X3000D01*
X2991Y2855*
X2983Y2850*
X2977Y2843*
X2972Y2835*
X2970Y2827*
Y2817*
X2972Y2809*
X2977Y2801*
X2983Y2794*
X2991Y2789*
X3000Y2787*
X3009*
X3018Y2789*
X3026Y2794*
X3032Y2801*
X3037Y2809*
X3039Y2817*
Y2827*
X3037Y2835*
X3032Y2843*
X3026Y2850*
X3018Y2855*
X3009Y2857*
G37*
G36*
X2834D02*
X2825D01*
X2816Y2855*
X2808Y2850*
X2802Y2843*
X2797Y2835*
X2795Y2827*
Y2817*
X2797Y2809*
X2802Y2801*
X2808Y2794*
X2816Y2789*
X2825Y2787*
X2834*
X2843Y2789*
X2851Y2794*
X2857Y2801*
X2862Y2809*
X2864Y2817*
Y2827*
X2862Y2835*
X2857Y2843*
X2851Y2850*
X2843Y2855*
X2834Y2857*
G37*
G36*
X4205Y2820D02*
X4194D01*
X4182Y2817*
X4172Y2811*
X4164Y2803*
X4158Y2792*
X4155Y2781*
Y2769*
X4158Y2758*
X4164Y2748*
X4172Y2740*
X4182Y2734*
X4194Y2731*
X4205*
X4217Y2734*
X4227Y2740*
X4235Y2748*
X4241Y2758*
X4244Y2769*
Y2781*
X4241Y2792*
X4235Y2803*
X4227Y2811*
X4217Y2817*
X4205Y2820*
G37*
G36*
X3205D02*
X3194D01*
X3182Y2817*
X3172Y2811*
X3164Y2803*
X3158Y2792*
X3155Y2781*
Y2769*
X3158Y2758*
X3164Y2748*
X3172Y2740*
X3182Y2734*
X3194Y2731*
X3205*
X3217Y2734*
X3227Y2740*
X3235Y2748*
X3241Y2758*
X3242Y2764*
X4066*
X4082Y2748*
X4082Y2746*
X4080Y2738*
Y2731*
X4082Y2723*
X4086Y2716*
X4091Y2711*
X4098Y2707*
X4106Y2705*
X4113*
X4121Y2707*
X4128Y2711*
X4133Y2716*
X4137Y2723*
X4139Y2731*
Y2738*
X4137Y2746*
X4133Y2753*
X4128Y2758*
X4121Y2762*
X4113Y2764*
X4106*
X4099Y2763*
X4078Y2783*
X4075Y2786*
X4070Y2786*
X3242*
X3241Y2792*
X3235Y2803*
X3227Y2811*
X3217Y2817*
X3205Y2820*
G37*
G36*
X3009Y2699D02*
X3000D01*
X2991Y2697*
X2983Y2692*
X2977Y2686*
X2972Y2678*
X2971Y2676*
X2863*
X2862Y2678*
X2857Y2686*
X2851Y2692*
X2843Y2697*
X2834Y2699*
X2825*
X2816Y2697*
X2808Y2692*
X2802Y2686*
X2797Y2678*
X2795Y2669*
Y2660*
X2797Y2651*
X2802Y2643*
X2808Y2637*
X2816Y2632*
X2825Y2630*
X2834*
X2843Y2632*
X2851Y2637*
X2857Y2643*
X2862Y2651*
X2863Y2653*
X2971*
X2972Y2651*
X2977Y2643*
X2983Y2637*
X2991Y2632*
X3000Y2630*
X3009*
X3018Y2632*
X3026Y2637*
X3032Y2643*
X3037Y2651*
X3039Y2660*
Y2669*
X3037Y2678*
X3032Y2686*
X3026Y2692*
X3018Y2697*
X3009Y2699*
G37*
G36*
X4205Y2720D02*
X4194D01*
X4182Y2717*
X4172Y2711*
X4164Y2703*
X4158Y2692*
X4155Y2681*
Y2669*
X4158Y2658*
X4164Y2648*
X4172Y2640*
X4182Y2634*
X4194Y2631*
X4205*
X4217Y2634*
X4227Y2640*
X4235Y2648*
X4241Y2658*
X4244Y2669*
Y2681*
X4241Y2692*
X4235Y2703*
X4227Y2711*
X4217Y2717*
X4205Y2720*
G37*
G36*
X3205D02*
X3194D01*
X3182Y2717*
X3172Y2711*
X3164Y2703*
X3158Y2692*
X3155Y2681*
Y2669*
X3158Y2658*
X3164Y2648*
X3172Y2640*
X3182Y2634*
X3194Y2631*
X3205*
X3217Y2634*
X3227Y2640*
X3235Y2648*
X3241Y2658*
X3244Y2669*
Y2681*
X3241Y2692*
X3235Y2703*
X3227Y2711*
X3217Y2717*
X3205Y2720*
G37*
G36*
X3009Y2619D02*
X3000D01*
X2991Y2617*
X2983Y2612*
X2977Y2606*
X2972Y2598*
X2971Y2596*
X2863*
X2862Y2598*
X2857Y2606*
X2851Y2612*
X2843Y2617*
X2834Y2619*
X2825*
X2816Y2617*
X2808Y2612*
X2802Y2606*
X2797Y2598*
X2795Y2589*
Y2580*
X2797Y2571*
X2802Y2563*
X2808Y2557*
X2816Y2552*
X2825Y2550*
X2834*
X2843Y2552*
X2851Y2557*
X2857Y2563*
X2862Y2571*
X2863Y2573*
X2971*
X2972Y2571*
X2977Y2563*
X2983Y2557*
X2991Y2552*
X3000Y2550*
X3009*
X3018Y2552*
X3026Y2557*
X3032Y2563*
X3037Y2571*
X3039Y2580*
Y2589*
X3037Y2598*
X3032Y2606*
X3026Y2612*
X3018Y2617*
X3009Y2619*
G37*
G36*
X4205Y2620D02*
X4194D01*
X4182Y2617*
X4172Y2611*
X4164Y2603*
X4158Y2592*
X4155Y2581*
Y2569*
X4158Y2558*
X4164Y2548*
X4172Y2540*
X4182Y2534*
X4194Y2531*
X4205*
X4217Y2534*
X4227Y2540*
X4235Y2548*
X4241Y2558*
X4244Y2569*
Y2581*
X4241Y2592*
X4235Y2603*
X4227Y2611*
X4217Y2617*
X4205Y2620*
G37*
G36*
X3205D02*
X3194D01*
X3182Y2617*
X3172Y2611*
X3164Y2603*
X3158Y2592*
X3155Y2581*
Y2569*
X3158Y2558*
X3164Y2548*
X3172Y2540*
X3182Y2534*
X3194Y2531*
X3205*
X3217Y2534*
X3227Y2540*
X3235Y2548*
X3241Y2558*
X3244Y2569*
Y2581*
X3241Y2592*
X3235Y2603*
X3227Y2611*
X3217Y2617*
X3205Y2620*
G37*
G36*
X4396Y3762D02*
X4388D01*
X4380Y3760*
X4374Y3756*
X4368Y3750*
X4364Y3744*
X4362Y3736*
Y3728*
X4364Y3720*
X4368Y3714*
X4374Y3708*
X4380Y3704*
X4388Y3702*
X4396*
X4402Y3704*
X4536Y3569*
Y2955*
X4537Y2950*
X4540Y2945*
X4601Y2884*
Y2500*
X4602Y2495*
X4605Y2490*
X4656Y2439*
X4655Y2433*
Y2426*
X4657Y2418*
X4661Y2411*
X4666Y2406*
X4673Y2402*
X4681Y2400*
X4688*
X4696Y2402*
X4703Y2406*
X4708Y2411*
X4712Y2418*
X4714Y2426*
Y2433*
X4712Y2441*
X4708Y2448*
X4703Y2453*
X4696Y2457*
X4688Y2459*
X4681*
X4675Y2458*
X4628Y2505*
Y2890*
X4627Y2894*
X4624Y2899*
X4563Y2960*
Y3575*
X4562Y3579*
X4559Y3584*
X4420Y3722*
X4422Y3728*
Y3736*
X4420Y3744*
X4416Y3750*
X4410Y3756*
X4404Y3760*
X4396Y3762*
G37*
G36*
X4962Y2270D02*
X4947D01*
X4932Y2267*
X4919Y2262*
X4906Y2253*
X4896Y2243*
X4887Y2230*
X4882Y2217*
X4879Y2202*
Y2187*
X4882Y2172*
X4887Y2159*
X4896Y2146*
X4906Y2136*
X4919Y2127*
X4932Y2122*
X4947Y2119*
X4962*
X4977Y2122*
X4990Y2127*
X5003Y2136*
X5013Y2146*
X5022Y2159*
X5027Y2172*
X5030Y2187*
Y2202*
X5027Y2217*
X5022Y2230*
X5013Y2243*
X5003Y2253*
X4990Y2262*
X4977Y2267*
X4962Y2270*
G37*
G36*
X2827D02*
X2812D01*
X2797Y2267*
X2784Y2262*
X2771Y2253*
X2761Y2243*
X2752Y2230*
X2747Y2217*
X2744Y2202*
Y2187*
X2747Y2172*
X2752Y2159*
X2761Y2146*
X2771Y2136*
X2784Y2127*
X2797Y2122*
X2812Y2119*
X2827*
X2842Y2122*
X2855Y2127*
X2868Y2136*
X2878Y2146*
X2887Y2159*
X2892Y2172*
X2895Y2187*
Y2202*
X2892Y2217*
X2887Y2230*
X2878Y2243*
X2868Y2253*
X2855Y2262*
X2842Y2267*
X2827Y2270*
G37*
%LNecu_freio_2024_equipe_imperador_copper_signal_bot-3*%
%LPD*%
G54D10*
X4161Y2340D02*
X4345Y2235D01*
X4160Y2340D02*
X4161Y2340D01*
X4008Y2475D02*
X4160Y2340D01*
X3200Y2475D02*
X4008D01*
X4110Y2735D02*
Y2736D01*
X4070Y2775D02*
X4110Y2736D01*
X3200Y2775D02*
X4070D01*
X3105Y2775D02*
Y2840D01*
X3140Y2875*
X3073Y2743D02*
X3105Y2775D01*
X3005Y2743D02*
X3073D01*
X3140Y2875D02*
X3200D01*
X2830Y2743D02*
X3005D01*
X2980Y3825D02*
X3040D01*
X3130Y3145D02*
Y3735D01*
X3040Y3825D02*
X3130Y3735D01*
X2930Y3775D02*
X2980Y3825D01*
X3130Y3145D02*
X3200Y3075D01*
X3114Y2982D02*
X3121Y2975D01*
X3085Y3114D02*
Y3690D01*
Y3114D02*
X3114Y3085D01*
X3121Y2975D02*
X3200D01*
X3114Y2982D02*
Y3085D01*
X3005Y3770D02*
X3085Y3690D01*
X2977Y4182D02*
X3007D01*
X3015Y4175*
X2895Y3255D02*
X3060Y3090D01*
X3005Y2901D02*
X3060Y2956D01*
Y3090*
X2895Y3255D02*
Y3350D01*
X2955Y4205D02*
X2960Y4200D01*
X3134Y4374*
X2820Y4205D02*
X2955D01*
X2960Y4200D02*
X2977Y4182D01*
X2720Y4105D02*
X2820Y4205D01*
X2720Y3011D02*
Y4105D01*
Y3011D02*
X2830Y2901D01*
Y2665D02*
X3005D01*
X2830Y2585D02*
X3005D01*
G54D17*
X4685Y2430D02*
X4690Y2425D01*
X4615Y2500D02*
X4685Y2430D01*
X4615Y2500D02*
Y2890D01*
X4550Y2955D02*
X4615Y2890D01*
X4550Y2955D02*
Y3575D01*
X4392Y3732D02*
X4550Y3575D01*
X4030Y3945D02*
X4200Y3775D01*
X2770Y3945D02*
X4030D01*
X2770D02*
X2772Y3947D01*
Y4057D02*
X2775Y4060D01*
X2772Y3947D02*
Y4057D01*
X4695Y4545D02*
X4785Y4455D01*
X4200Y3775D02*
X4785Y4360D01*
Y4455*
X2830Y3058D02*
X3005D01*
G54D18*
X2910Y4355D02*
X2990Y4435D01*
X3190D02*
X3250Y4374D01*
X2990Y4435D02*
X3190D01*
X3250Y4374D02*
X3300D01*
X2910Y4265D02*
Y4355D01*
G54D19*
X4435Y3947D02*
X4605Y3777D01*
Y2980D02*
Y3777D01*
X4755Y3830D02*
Y3925D01*
Y3830D02*
X4810Y3775D01*
Y3470D02*
Y3775D01*
X4605Y2980D02*
X4810Y2775D01*
Y2620D02*
Y2775D01*
G54D20*
X3200Y3775D03*
G54D21*
X3200Y3675D03*
Y3575D03*
Y3475D03*
Y3375D03*
Y3275D03*
Y3175D03*
Y3075D03*
Y2975D03*
Y2875D03*
Y2775D03*
Y2675D03*
Y2575D03*
Y2475D03*
Y2375D03*
X4200Y3775D03*
Y3675D03*
Y3575D03*
Y3475D03*
Y3375D03*
Y3275D03*
Y3175D03*
Y3075D03*
Y2975D03*
Y2875D03*
Y2775D03*
Y2675D03*
Y2575D03*
Y2475D03*
Y2375D03*
X4035Y4380D03*
X4200Y4545D03*
Y4380D03*
X3134Y4374D03*
X3300Y4540D03*
Y4374D03*
X4529Y4380D03*
X4695Y4545D03*
Y4380D03*
G54D22*
X3216Y2240D03*
X4181D03*
Y4089D03*
X3216D03*
G54D23*
X4810Y2620D03*
Y3470D03*
G54D24*
X4855Y3925D03*
X4755D03*
X3005Y2585D03*
Y2665D03*
Y2743D03*
Y2822D03*
Y2901D03*
Y2979D03*
X2830Y2585D03*
Y2665D03*
Y2743D03*
Y2822D03*
Y2901D03*
Y2979D03*
G54D25*
X3005Y3058D03*
X2830D03*
G54D26*
X4035Y4545D03*
X3134Y4540D03*
X4529Y4545D03*
G54D27*
X4955Y4630D03*
Y2195D03*
X2820D03*
Y4630D03*
G54D28*
X2855Y3285D03*
X4685Y2430D03*
X4392Y3732D03*
X4110Y2735D03*
X2770Y3945D03*
X2775Y4060D03*
X2930Y3775D03*
X3005Y3770D03*
X3015Y4175D03*
X2910Y4265D03*
X4345Y2235D03*
X2895Y3350D03*
X4435Y3947D03*
M02*