%FSLAX23Y23*%
%MOIN*%
%SFA1B1*%

%IPPOS*%
%AMD15*
4,1,8,-0.023700,-0.006900,0.023700,-0.006900,0.030600,0.000000,0.030600,0.000000,0.023700,0.006900,-0.023700,0.006900,-0.030600,0.000000,-0.030600,0.000000,-0.023700,-0.006900,0.0*
1,1,0.013780,-0.023700,0.000000*
1,1,0.013780,0.023700,0.000000*
1,1,0.013780,0.023700,0.000000*
1,1,0.013780,-0.023700,0.000000*
%
%AMD23*
4,1,8,0.023600,0.074800,-0.023600,0.074800,-0.098400,0.000000,-0.098400,0.000000,-0.023600,-0.074800,0.023600,-0.074800,0.098400,0.000000,0.098400,0.000000,0.023600,0.074800,0.0*
1,1,0.149606,0.023600,0.000000*
1,1,0.149606,-0.023600,0.000000*
1,1,0.149606,-0.023600,0.000000*
1,1,0.149606,0.023600,0.000000*
%
%AMD25*
4,1,8,0.015000,0.030000,-0.015000,0.030000,-0.030000,0.015000,-0.030000,-0.015000,-0.015000,-0.030000,0.015000,-0.030000,0.030000,-0.015000,0.030000,0.015000,0.015000,0.030000,0.0*
1,1,0.030000,0.015000,0.015000*
1,1,0.030000,-0.015000,0.015000*
1,1,0.030000,-0.015000,-0.015000*
1,1,0.030000,0.015000,-0.015000*
%
%AMD26*
4,1,8,0.019700,0.039400,-0.019700,0.039400,-0.039400,0.019700,-0.039400,-0.019700,-0.019700,-0.039400,0.019700,-0.039400,0.039400,-0.019700,0.039400,0.019700,0.019700,0.039400,0.0*
1,1,0.039370,0.019700,0.019700*
1,1,0.039370,-0.019700,0.019700*
1,1,0.039370,-0.019700,-0.019700*
1,1,0.039370,0.019700,-0.019700*
%
%ADD10C,0.011811*%
%ADD11R,0.021260X0.033858*%
%ADD12R,0.025591X0.060039*%
%ADD13R,0.057087X0.047244*%
%ADD14R,0.061279X0.013780*%
G04~CAMADD=15~8~0.0~0.0~612.8~137.8~68.9~0.0~15~0.0~0.0~0.0~0.0~0~0.0~0.0~0.0~0.0~0~0.0~0.0~0.0~180.0~612.0~137.0*
%ADD15D15*%
%ADD16R,0.059055X0.061024*%
%ADD17C,0.015748*%
%ADD18C,0.007874*%
%ADD19C,0.019685*%
%ADD20R,0.078740X0.078740*%
%ADD21C,0.078740*%
%ADD22C,0.118110*%
G04~CAMADD=23~8~0.0~0.0~1968.5~1496.1~748.0~0.0~15~0.0~0.0~0.0~0.0~0~0.0~0.0~0.0~0.0~0~0.0~0.0~0.0~0.0~1968.5~1496.1*
%ADD23D23*%
%ADD24C,0.060000*%
G04~CAMADD=25~8~0.0~0.0~600.0~600.0~150.0~0.0~15~0.0~0.0~0.0~0.0~0~0.0~0.0~0.0~0.0~0~0.0~0.0~0.0~0.0~600.0~600.0*
%ADD25D25*%
G04~CAMADD=26~8~0.0~0.0~787.4~787.4~196.9~0.0~15~0.0~0.0~0.0~0.0~0~0.0~0.0~0.0~0.0~0~0.0~0.0~0.0~0.0~787.4~787.4*
%ADD26D26*%
%ADD27C,0.060000*%
%ADD28C,0.050000*%
%LNecu_freio_2024_equipe_imperador_copper_signal_top-1*%
%LPD*%
G36*
X5090Y2065D02*
X4260D01*
Y2337*
X4260Y2337*
X4266Y2350*
X4269Y2360*
X4270Y2363*
X4270Y2365*
X4271Y2367*
Y2612*
X4298Y2639*
X4304Y2638*
X4305Y2637*
X4308Y2634*
X4313Y2633*
X4328*
Y2557*
X4328Y2554*
X4330Y2551*
X4430Y2451*
Y2407*
X4406*
Y2388*
X4369*
X4365Y2387*
X4362Y2385*
X4338Y2361*
X4336Y2358*
X4335Y2355*
Y2263*
X4333Y2262*
X4326Y2258*
X4321Y2253*
X4317Y2246*
X4315Y2238*
Y2231*
X4317Y2223*
X4321Y2216*
X4326Y2211*
X4333Y2207*
X4341Y2205*
X4348*
X4356Y2207*
X4363Y2211*
X4368Y2216*
X4372Y2223*
X4374Y2231*
Y2238*
X4372Y2246*
X4368Y2253*
X4363Y2258*
X4356Y2262*
X4354Y2263*
Y2351*
X4373Y2370*
X4406*
Y2350*
X4473*
Y2407*
X4449*
Y2455*
X4448Y2458*
X4446Y2461*
X4346Y2561*
Y2633*
X4361*
X4365Y2634*
X4369Y2637*
X4372Y2641*
X4373Y2645*
X4372Y2650*
X4374Y2655*
X4387*
X4576Y2465*
Y2407*
X4556*
Y2350*
X4623*
Y2407*
X4594*
Y2469*
X4593Y2473*
X4591Y2475*
X4397Y2670*
X4394Y2672*
X4390Y2673*
X4372*
X4370Y2677*
X4371Y2678*
X4372Y2680*
X4372Y2681*
X4373Y2682*
X4467Y2775*
X4500*
X4504Y2776*
X4507Y2778*
X4520Y2792*
X4522Y2792*
X4525Y2790*
Y2760*
X4501Y2736*
X4478*
X4474Y2735*
X4470Y2732*
X4467Y2728*
X4466Y2724*
X4467Y2719*
X4468Y2718*
X4470Y2714*
X4468Y2710*
X4467Y2709*
X4466Y2704*
X4467Y2700*
X4468Y2698*
X4466Y2697*
X4465Y2694*
X4472*
X4474Y2693*
X4478Y2692*
X4502*
Y2677*
X4478*
X4474Y2676*
X4472Y2675*
X4465*
X4466Y2672*
X4468Y2671*
X4467Y2669*
X4466Y2665*
X4467Y2662*
X4467Y2657*
Y2633*
X4538*
Y2657*
X4537Y2662*
X4538Y2665*
X4537Y2669*
X4536Y2671*
X4538Y2672*
X4542Y2678*
X4543Y2685*
X4542Y2688*
X4546Y2693*
X4549*
X4553Y2694*
X4557Y2696*
X4567Y2707*
X4570Y2710*
X4571Y2715*
Y4213*
X4570Y4218*
X4568Y4220*
X4569Y4220*
X4454Y4375*
X4331Y4534*
X4268Y4612*
X4268Y4612*
X4268Y4612*
X4268Y4612*
X4267Y4614*
X4265Y4615*
X4265Y4615*
X4259Y4619*
X4250Y4621*
X4245Y4621*
X3995*
X3990Y4620*
X3987Y4617*
X3957Y4587*
X3954Y4584*
X3953Y4580*
Y4450*
X3954Y4445*
X3957Y4442*
X3996Y4402*
X3993Y4397*
X3990Y4385*
Y4374*
X3993Y4362*
X3999Y4352*
X4007Y4344*
X4017Y4338*
X4029Y4335*
X4040*
X4052Y4338*
X4062Y4344*
X4070Y4352*
X4076Y4362*
X4079Y4374*
Y4385*
X4076Y4397*
X4070Y4407*
X4062Y4415*
X4052Y4421*
X4040Y4424*
X4029*
X4017Y4421*
X4012Y4418*
X3976Y4454*
Y4575*
X3999Y4598*
X4190*
X4191Y4593*
X4181Y4591*
X4170Y4584*
X4160Y4575*
X4154Y4564*
X4151Y4555*
X4248*
X4246Y4564*
X4239Y4575*
X4230Y4584*
X4219Y4591*
X4209Y4593*
X4210Y4598*
X4246*
X4251Y4598*
X4313Y4520*
X4436Y4362*
X4548Y4210*
Y3660*
X4544Y3660*
X4543Y3663*
X4541Y3666*
X4349Y3858*
Y4240*
X4348Y4243*
X4346Y4246*
X4237Y4355*
X4241Y4362*
X4244Y4374*
Y4385*
X4241Y4397*
X4235Y4407*
X4227Y4415*
X4217Y4421*
X4206Y4424*
X4194*
X4183Y4421*
X4173Y4415*
X4164Y4407*
X4159Y4397*
X4156Y4385*
Y4374*
X4159Y4362*
X4164Y4352*
X4173Y4344*
X4183Y4338*
X4194Y4335*
X4206*
X4217Y4338*
X4224Y4342*
X4330Y4236*
Y3855*
X4331Y3851*
X4333Y3848*
X4525Y3656*
Y3068*
X4522Y3067*
X4520Y3066*
X4506Y3081*
X4503Y3083*
X4500Y3084*
X4489*
Y3110*
X4423*
X4420*
X4415*
X4402*
Y3489*
X4415*
Y3484*
X4445*
Y3525*
Y3565*
X4415*
Y3560*
X4402*
Y3655*
X4401Y3660*
X4398Y3664*
X4269Y3794*
X4264Y3797*
X4260Y3798*
X4238*
X4235Y3803*
X4227Y3811*
X4225Y3812*
X4227Y3816*
X4289*
X4364Y3742*
X4362Y3736*
Y3728*
X4364Y3720*
X4368Y3714*
X4374Y3708*
X4380Y3704*
X4388Y3702*
X4396*
X4404Y3704*
X4410Y3708*
X4416Y3714*
X4420Y3720*
X4422Y3728*
Y3736*
X4420Y3744*
X4416Y3750*
X4410Y3756*
X4404Y3760*
X4396Y3762*
X4388*
X4382Y3760*
X4304Y3839*
X4299Y3842*
X4295Y3843*
X4090*
X4085Y3842*
X4080Y3839*
X4030Y3788*
X3244*
Y3820*
X3155*
Y3731*
X3244*
Y3762*
X4035*
X4040Y3763*
X4045Y3766*
X4095Y3816*
X4172*
X4174Y3812*
X4172Y3811*
X4164Y3803*
X4158Y3792*
X4155Y3781*
Y3769*
X4158Y3758*
X4164Y3748*
X4172Y3740*
X4182Y3734*
X4194Y3731*
X4205*
X4217Y3734*
X4227Y3740*
X4235Y3748*
X4241Y3758*
X4244Y3769*
Y3771*
X4254*
X4376Y3650*
Y3560*
X4350*
Y3489*
X4376*
Y3110*
X4349*
Y3039*
X4371*
Y2890*
X4350*
Y2819*
X4415*
Y2814*
X4445*
Y2855*
Y2895*
X4415*
Y2890*
X4397*
Y3039*
X4415*
X4418*
X4423*
X4489*
Y3065*
X4496*
X4505Y3056*
Y2802*
X4497Y2794*
X4463*
X4460Y2793*
X4457Y2791*
X4377Y2711*
X4372Y2712*
X4370Y2716*
X4371Y2718*
X4372Y2719*
X4373Y2724*
X4372Y2728*
X4369Y2732*
X4365Y2735*
X4361Y2736*
X4313*
X4308Y2735*
X4305Y2732*
X4302Y2728*
X4301Y2724*
X4302Y2719*
X4303Y2718*
X4304Y2714*
X4303Y2710*
X4302Y2709*
X4301Y2704*
X4302Y2700*
X4303Y2698*
X4304Y2694*
X4303Y2691*
X4302Y2689*
X4301Y2685*
X4302Y2680*
X4303Y2679*
X4303Y2677*
X4303Y2676*
X4302Y2673*
X4301Y2673*
X4300Y2672*
X4299Y2672*
X4299Y2671*
X4298Y2671*
X4252Y2624*
X4249Y2621*
X4248Y2617*
Y2583*
X4243Y2582*
X4241Y2592*
X4235Y2603*
X4227Y2611*
X4217Y2617*
X4205Y2620*
X4194*
X4182Y2617*
X4172Y2611*
X4164Y2603*
X4158Y2592*
X4155Y2581*
Y2569*
X4158Y2558*
X4164Y2548*
X4172Y2540*
X4182Y2534*
X4194Y2531*
X4205*
X4217Y2534*
X4227Y2540*
X4235Y2548*
X4241Y2558*
X4243Y2568*
X4248Y2568*
Y2525*
X4137*
X4117Y2705*
X4121Y2707*
X4128Y2711*
X4133Y2716*
X4137Y2723*
X4139Y2731*
Y2738*
X4137Y2746*
X4133Y2753*
X4128Y2758*
X4121Y2762*
X4113Y2764*
X4106*
X4098Y2762*
X4091Y2758*
X4086Y2753*
X4082Y2746*
X4080Y2738*
Y2731*
X4082Y2723*
X4086Y2716*
X4091Y2711*
X4094Y2709*
X4114Y2528*
X4111Y2525*
X3140*
X3135Y2520*
Y2065*
X2680*
Y4775*
X5090*
Y2065*
G37*
%LNecu_freio_2024_equipe_imperador_copper_signal_top-2*%
%LPC*%
G36*
X4962Y4705D02*
X4947D01*
X4932Y4702*
X4919Y4697*
X4906Y4688*
X4896Y4678*
X4887Y4665*
X4882Y4652*
X4879Y4637*
Y4622*
X4882Y4607*
X4887Y4594*
X4896Y4581*
X4906Y4571*
X4919Y4562*
X4932Y4557*
X4947Y4554*
X4962*
X4977Y4557*
X4990Y4562*
X5003Y4571*
X5013Y4581*
X5022Y4594*
X5027Y4607*
X5030Y4622*
Y4637*
X5027Y4652*
X5022Y4665*
X5013Y4678*
X5003Y4688*
X4990Y4697*
X4977Y4702*
X4962Y4705*
G37*
G36*
X2827D02*
X2812D01*
X2797Y4702*
X2784Y4697*
X2771Y4688*
X2761Y4678*
X2752Y4665*
X2747Y4652*
X2744Y4637*
Y4622*
X2747Y4607*
X2752Y4594*
X2761Y4581*
X2771Y4571*
X2784Y4562*
X2797Y4557*
X2812Y4554*
X2827*
X2842Y4557*
X2855Y4562*
X2868Y4571*
X2878Y4581*
X2887Y4594*
X2892Y4607*
X2895Y4622*
Y4637*
X2892Y4652*
X2887Y4665*
X2878Y4678*
X2868Y4688*
X2855Y4697*
X2842Y4702*
X2827Y4705*
G37*
G36*
X4700Y4589D02*
X4689D01*
X4677Y4586*
X4667Y4580*
X4659Y4572*
X4653Y4562*
X4650Y4551*
Y4539*
X4653Y4528*
X4659Y4518*
X4667Y4509*
X4677Y4504*
X4689Y4501*
X4700*
X4712Y4504*
X4722Y4509*
X4730Y4518*
X4736Y4528*
X4739Y4539*
Y4551*
X4736Y4562*
X4730Y4572*
X4722Y4580*
X4712Y4586*
X4700Y4589*
G37*
G36*
X4248Y4535D02*
X4210D01*
Y4496*
X4219Y4499*
X4230Y4505*
X4239Y4515*
X4246Y4526*
X4248Y4535*
G37*
G36*
X4190D02*
X4151D01*
X4154Y4526*
X4160Y4515*
X4170Y4505*
X4181Y4499*
X4190Y4496*
Y4535*
G37*
G36*
X3154Y4584D02*
X3114D01*
X3105Y4582*
X3097Y4577*
X3091Y4569*
X3089Y4559*
Y4520*
X3091Y4512*
X3057Y4478*
X3054Y4474*
X3053Y4470*
Y3629*
X2935Y3511*
X2925*
X2920Y3510*
X2917Y3507*
X2900Y3491*
X2898Y3487*
X2897Y3483*
Y3478*
X2887*
Y3408*
X2888*
Y3379*
X2883Y3377*
X2876Y3373*
X2871Y3368*
X2867Y3361*
X2865Y3353*
Y3346*
X2867Y3338*
X2871Y3331*
X2876Y3326*
X2883Y3322*
X2891Y3320*
X2898*
X2906Y3322*
X2913Y3326*
X2918Y3331*
X2922Y3338*
X2924Y3346*
Y3353*
X2922Y3361*
X2918Y3368*
X2913Y3373*
X2911Y3375*
Y3408*
X2922*
Y3478*
X2923Y3482*
X2929Y3488*
X2940*
X2942Y3489*
X2945Y3484*
X2944Y3484*
X2943Y3480*
Y3478*
X2937*
Y3408*
X2943*
Y3321*
X2931Y3309*
X2928Y3305*
X2927Y3301*
Y2888*
X2928Y2884*
X2931Y2880*
X2973Y2838*
X2972Y2835*
X2970Y2827*
Y2817*
X2972Y2809*
X2977Y2801*
X2983Y2794*
X2991Y2789*
X3000Y2787*
X3009*
X3018Y2789*
X3026Y2794*
X3032Y2801*
X3037Y2809*
X3039Y2817*
Y2827*
X3037Y2835*
X3032Y2843*
X3026Y2850*
X3018Y2855*
X3009Y2857*
X3000*
X2991Y2855*
X2989Y2853*
X2950Y2893*
Y3164*
X2950Y3169*
X2955*
X2979*
Y3210*
Y3250*
X2950*
X2950Y3255*
Y3296*
X2962Y3309*
X2965Y3313*
X2966Y3317*
Y3408*
X2972*
Y3478*
X2971Y3480*
X3112Y3622*
X3115Y3625*
X3116Y3630*
Y4228*
X3225Y4338*
X3228Y4341*
X3229Y4346*
Y4453*
X3277Y4501*
X3282Y4498*
X3294Y4495*
X3305*
X3317Y4498*
X3327Y4504*
X3335Y4512*
X3341Y4522*
X3344Y4534*
Y4545*
X3341Y4557*
X3335Y4567*
X3327Y4575*
X3317Y4581*
X3305Y4584*
X3294*
X3282Y4581*
X3272Y4575*
X3264Y4567*
X3258Y4557*
X3255Y4545*
Y4534*
X3258Y4522*
X3261Y4517*
X3210Y4465*
X3207Y4462*
X3206Y4458*
Y4350*
X3097Y4240*
X3094Y4237*
X3093Y4233*
Y3634*
X3080Y3620*
X3075Y3623*
X3076Y3625*
Y4465*
X3107Y4496*
X3114Y4495*
X3154*
X3163Y4497*
X3172Y4502*
X3177Y4510*
X3179Y4520*
Y4559*
X3177Y4569*
X3172Y4577*
X3163Y4582*
X3154Y4584*
G37*
G36*
X4704Y4428D02*
Y4389D01*
X4743*
X4741Y4399*
X4734Y4410*
X4725Y4419*
X4714Y4426*
X4704Y4428*
G37*
G36*
X4685D02*
X4675Y4426D01*
X4664Y4419*
X4655Y4410*
X4648Y4399*
X4646Y4389*
X4685*
Y4428*
G37*
G36*
X4539D02*
Y4389D01*
X4578*
X4575Y4399*
X4569Y4410*
X4559Y4419*
X4548Y4426*
X4539Y4428*
G37*
G36*
X4519D02*
X4510Y4426D01*
X4499Y4419*
X4490Y4410*
X4483Y4399*
X4481Y4389*
X4519*
Y4428*
G37*
G36*
X4743Y4370D02*
X4704D01*
Y4331*
X4714Y4333*
X4725Y4340*
X4734Y4349*
X4741Y4360*
X4743Y4370*
G37*
G36*
X4685D02*
X4646D01*
X4648Y4360*
X4655Y4349*
X4664Y4340*
X4675Y4333*
X4685Y4331*
Y4370*
G37*
G36*
X4578D02*
X4539D01*
Y4331*
X4548Y4333*
X4559Y4340*
X4569Y4349*
X4575Y4360*
X4578Y4370*
G37*
G36*
X4519D02*
X4481D01*
X4483Y4360*
X4490Y4349*
X4499Y4340*
X4510Y4333*
X4519Y4331*
Y4370*
G37*
G36*
X3305Y4418D02*
X3294D01*
X3282Y4415*
X3272Y4410*
X3264Y4401*
X3258Y4391*
X3255Y4380*
Y4368*
X3258Y4357*
X3264Y4347*
X3272Y4339*
X3282Y4333*
X3294Y4330*
X3305*
X3317Y4333*
X3327Y4339*
X3335Y4347*
X3341Y4357*
X3344Y4368*
Y4380*
X3341Y4391*
X3335Y4401*
X3327Y4410*
X3317Y4415*
X3305Y4418*
G37*
G36*
X3140D02*
X3128D01*
X3117Y4415*
X3107Y4410*
X3099Y4401*
X3093Y4391*
X3090Y4380*
Y4368*
X3093Y4357*
X3099Y4347*
X3107Y4339*
X3117Y4333*
X3128Y4330*
X3140*
X3151Y4333*
X3161Y4339*
X3170Y4347*
X3175Y4357*
X3178Y4368*
Y4380*
X3175Y4391*
X3170Y4401*
X3161Y4410*
X3151Y4415*
X3140Y4418*
G37*
G36*
X3018Y4204D02*
X3011D01*
X3003Y4202*
X2996Y4198*
X2991Y4193*
X2987Y4186*
X2986Y4182*
X2981*
X2981*
X2977Y4181*
X2973Y4179*
X2952Y4157*
X2949Y4154*
X2948Y4150*
Y4136*
X2942*
Y4066*
X2977*
Y4136*
X2971*
Y4145*
X2984Y4158*
X2990Y4158*
X2991Y4156*
X2996Y4151*
X3003Y4147*
X3004Y4146*
X3004Y4141*
X2987*
Y4111*
X3010*
X3032*
Y4141*
X3025*
X3025Y4146*
X3026Y4147*
X3033Y4151*
X3038Y4156*
X3042Y4163*
X3044Y4171*
Y4178*
X3042Y4186*
X3038Y4193*
X3033Y4198*
X3026Y4202*
X3018Y4204*
G37*
G36*
X4054Y4590D02*
X4015D01*
X4005Y4588*
X3997Y4582*
X3992Y4574*
X3990Y4565*
Y4525*
X3992Y4516*
X3997Y4507*
X4005Y4502*
X4015Y4500*
X4054*
X4057Y4501*
X4106Y4452*
Y4452*
X4111Y4449*
X4117Y4447*
X4259*
X4419Y4287*
Y4136*
X4419*
Y4092*
X4450*
Y4136*
X4450*
Y4293*
Y4293*
X4448Y4299*
X4445Y4303*
X4445*
X4275Y4473*
X4271Y4476*
X4265Y4478*
X4123*
X4079Y4522*
X4079Y4525*
Y4565*
X4077Y4574*
X4072Y4582*
X4064Y4588*
X4054Y4590*
G37*
G36*
X2877Y4136D02*
X2842D01*
Y4114*
X2813*
X2808Y4113*
X2803Y4110*
X2782Y4089*
X2778Y4089*
X2771*
X2763Y4087*
X2756Y4083*
X2751Y4078*
X2747Y4071*
X2745Y4063*
Y4056*
X2747Y4048*
X2751Y4041*
X2756Y4036*
X2763Y4032*
X2771Y4030*
X2778*
X2786Y4032*
X2793Y4036*
X2798Y4041*
X2802Y4048*
X2804Y4056*
Y4063*
X2802Y4071*
X2802Y4072*
X2818Y4088*
X2842*
Y4066*
X2877*
Y4136*
G37*
G36*
X3032Y4091D02*
X3019D01*
Y4061*
X3032*
Y4091*
G37*
G36*
X3000D02*
X2987D01*
Y4061*
X3000*
Y4091*
G37*
G36*
X4187Y4153D02*
X4175D01*
X4162Y4150*
X4151Y4145*
X4140Y4138*
X4131Y4129*
X4124Y4119*
X4119Y4107*
X4117Y4095*
Y4082*
X4119Y4070*
X4124Y4058*
X4131Y4048*
X4140Y4039*
X4151Y4032*
X4162Y4027*
X4175Y4025*
X4187*
X4200Y4027*
X4211Y4032*
X4222Y4039*
X4231Y4048*
X4238Y4058*
X4243Y4070*
X4245Y4082*
Y4095*
X4243Y4107*
X4238Y4119*
X4231Y4129*
X4222Y4138*
X4211Y4145*
X4200Y4150*
X4187Y4153*
G37*
G36*
X3222D02*
X3210D01*
X3197Y4150*
X3186Y4145*
X3175Y4138*
X3166Y4129*
X3159Y4119*
X3155Y4107*
X3152Y4095*
Y4082*
X3155Y4070*
X3159Y4058*
X3166Y4048*
X3175Y4039*
X3186Y4032*
X3197Y4027*
X3210Y4025*
X3222*
X3235Y4027*
X3246Y4032*
X3257Y4039*
X3266Y4048*
X3273Y4058*
X3278Y4070*
X3280Y4082*
Y4095*
X3278Y4107*
X3273Y4119*
X3266Y4129*
X3257Y4138*
X3246Y4145*
X3235Y4150*
X3222Y4153*
G37*
G36*
X2913Y4294D02*
X2906D01*
X2898Y4292*
X2891Y4288*
X2886Y4283*
X2882Y4276*
X2880Y4268*
Y4261*
X2882Y4253*
X2886Y4246*
X2891Y4241*
X2898Y4237*
X2898Y4236*
Y4136*
X2892*
Y4066*
X2894*
X2896Y4061*
X2802Y3967*
X2799Y3964*
X2799Y3963*
X2794Y3962*
X2793Y3963*
X2788Y3968*
X2781Y3972*
X2773Y3974*
X2766*
X2758Y3972*
X2751Y3968*
X2746Y3963*
X2742Y3956*
X2740Y3948*
Y3941*
X2742Y3933*
X2746Y3926*
X2747Y3924*
X2745Y3922*
X2742Y3918*
X2741Y3913*
Y3133*
X2742Y3128*
X2745Y3124*
X2794Y3075*
X2794Y3073*
Y3043*
X2796Y3035*
X2800Y3029*
X2807Y3024*
X2815Y3023*
X2818*
X2818Y3018*
X2814Y3017*
X2805Y3011*
X2797Y3004*
X2792Y2995*
X2791Y2989*
X2830*
Y2970*
X2791*
X2792Y2964*
X2797Y2955*
X2805Y2947*
X2814Y2942*
X2822Y2940*
Y2935*
X2816Y2933*
X2808Y2929*
X2802Y2922*
X2797Y2914*
X2795Y2905*
Y2896*
X2797Y2887*
X2802Y2879*
X2808Y2873*
X2816Y2868*
X2825Y2866*
X2834*
X2843Y2868*
X2851Y2873*
X2857Y2879*
X2862Y2887*
X2863Y2893*
X2868Y2892*
Y2877*
X2845Y2853*
X2843Y2855*
X2834Y2857*
X2825*
X2816Y2855*
X2808Y2850*
X2802Y2843*
X2797Y2835*
X2795Y2827*
Y2817*
X2797Y2809*
X2802Y2801*
X2808Y2794*
X2816Y2789*
X2825Y2787*
X2834*
X2843Y2789*
X2851Y2794*
X2857Y2801*
X2862Y2809*
X2864Y2817*
Y2827*
X2862Y2835*
X2861Y2838*
X2887Y2864*
X2890Y2868*
X2891Y2872*
Y3110*
X2890Y3114*
X2887Y3117*
X2801Y3204*
Y3226*
X2806Y3228*
X2806Y3228*
X2898Y3135*
Y2828*
X2845Y2775*
X2843Y2776*
X2834Y2778*
X2825*
X2816Y2776*
X2808Y2771*
X2802Y2765*
X2797Y2757*
X2795Y2748*
Y2739*
X2797Y2730*
X2802Y2722*
X2808Y2715*
X2816Y2711*
X2825Y2708*
X2834*
X2843Y2711*
X2851Y2715*
X2857Y2722*
X2862Y2730*
X2864Y2739*
Y2748*
X2862Y2757*
X2861Y2759*
X2917Y2815*
X2920Y2819*
X2921Y2823*
Y3139*
Y3140*
X2920Y3144*
X2917Y3147*
X2825Y3240*
Y3258*
X2830Y3260*
X2833Y3256*
X2841Y3252*
X2845Y3251*
Y3285*
Y3318*
X2841Y3317*
X2833Y3313*
X2830Y3309*
X2825Y3311*
Y3712*
X2825Y3712*
X2870*
X2886Y3696*
X2887Y3691*
Y3621*
X2922*
Y3691*
X2912*
Y3697*
X2911Y3701*
X2909Y3705*
X2886Y3728*
Y3805*
X2892Y3812*
X2895Y3816*
X2895Y3817*
X2900Y3818*
X2902Y3815*
X2911Y3806*
Y3798*
X2911Y3798*
X2906Y3793*
X2902Y3786*
X2900Y3778*
Y3771*
X2902Y3763*
X2906Y3756*
X2911Y3751*
X2918Y3747*
X2926Y3745*
X2933*
X2933Y3745*
X2943Y3735*
Y3691*
X2937*
Y3621*
X2972*
Y3691*
X2966*
Y3739*
X2965Y3743*
X2962Y3747*
X2953Y3756*
X2953Y3756*
X2957Y3763*
X2959Y3771*
Y3778*
X2957Y3786*
X2953Y3793*
X2948Y3798*
X2941Y3802*
X2933Y3804*
X2933*
Y3810*
X2932Y3815*
X2930Y3818*
X2921Y3828*
Y3853*
X2927*
Y3923*
X2896*
Y3930*
X2909Y3943*
X2935*
X2948Y3930*
Y3923*
X2942*
Y3853*
X2973*
Y3846*
X2974Y3841*
X2977Y3838*
X2993Y3821*
Y3798*
X2993Y3797*
X2986Y3793*
X2981Y3788*
X2977Y3781*
X2975Y3773*
Y3766*
X2977Y3758*
X2981Y3751*
X2986Y3746*
X2993Y3742*
X2993Y3741*
Y3691*
X2987*
Y3621*
X3022*
Y3691*
X3016*
Y3741*
X3016Y3742*
X3023Y3746*
X3028Y3751*
X3032Y3758*
X3034Y3766*
Y3773*
X3032Y3781*
X3028Y3788*
X3023Y3793*
X3016Y3797*
X3016Y3798*
Y3826*
X3015Y3830*
X3012Y3833*
X2998Y3848*
X3000Y3853*
X3027*
Y3923*
X2996*
Y3946*
X2995Y3950*
X2992Y3954*
X2949Y3997*
X2945Y4000*
X2941Y4001*
X2904*
X2904*
X2900Y4000*
X2896Y3997*
X2852Y3953*
X2849Y3949*
X2848Y3945*
Y3923*
X2842*
Y3853*
X2873*
Y3825*
X2867Y3818*
X2864Y3814*
X2863Y3810*
Y3735*
X2821*
X2816Y3734*
X2813Y3731*
X2806Y3724*
X2806Y3724*
X2801Y3725*
Y3895*
X2817Y3912*
X2820Y3915*
X2821Y3920*
Y3955*
X2917Y4052*
X2920Y4055*
X2921Y4060*
Y4066*
X2927*
Y4136*
X2921*
Y4236*
X2921Y4237*
X2928Y4241*
X2933Y4246*
X2937Y4253*
X2939Y4261*
Y4268*
X2937Y4276*
X2933Y4283*
X2928Y4288*
X2921Y4292*
X2913Y4294*
G37*
G36*
X4450Y4051D02*
X4419D01*
Y4008*
X4419*
Y3972*
X4416Y3970*
X4411Y3965*
X4407Y3958*
X4405Y3950*
Y3943*
X4407Y3935*
X4411Y3928*
X4416Y3923*
X4423Y3919*
X4431Y3917*
X4438*
X4446Y3919*
X4453Y3923*
X4458Y3928*
X4462Y3935*
X4464Y3943*
Y3950*
X4462Y3958*
X4458Y3965*
X4453Y3970*
X4450Y3972*
Y4008*
X4450*
Y4051*
G37*
G36*
X4549Y4590D02*
X4509D01*
X4500Y4588*
X4492Y4582*
X4486Y4574*
X4484Y4565*
Y4525*
X4486Y4516*
X4492Y4507*
X4500Y4502*
X4509Y4500*
X4549*
X4552Y4501*
X4609Y4443*
Y4220*
X4611Y4214*
X4614Y4209*
X4839Y3983*
Y3956*
X4833Y3952*
X4827Y3946*
X4822Y3938*
X4820Y3929*
Y3920*
X4822Y3911*
X4827Y3903*
X4833Y3897*
X4841Y3892*
X4850Y3890*
X4859*
X4868Y3892*
X4876Y3897*
X4882Y3903*
X4887Y3911*
X4889Y3920*
Y3929*
X4887Y3938*
X4882Y3946*
X4876Y3952*
X4870Y3956*
Y3990*
X4868Y3995*
X4865Y4000*
X4640Y4226*
Y4450*
X4638Y4455*
X4635Y4460*
X4573Y4522*
X4574Y4525*
Y4565*
X4572Y4574*
X4567Y4582*
X4558Y4588*
X4549Y4590*
G37*
G36*
X4759Y3959D02*
X4750D01*
X4741Y3957*
X4733Y3952*
X4727Y3946*
X4722Y3938*
X4720Y3929*
Y3920*
X4722Y3911*
X4727Y3903*
X4733Y3897*
X4741Y3892*
X4750Y3890*
X4759*
X4768Y3892*
X4776Y3897*
X4782Y3903*
X4787Y3911*
X4789Y3920*
Y3929*
X4787Y3938*
X4782Y3946*
X4776Y3952*
X4768Y3957*
X4759Y3959*
G37*
G36*
X4209Y3724D02*
Y3685D01*
X4248*
X4246Y3694*
X4239Y3706*
X4230Y3715*
X4219Y3721*
X4209Y3724*
G37*
G36*
X4190D02*
X4180Y3721D01*
X4169Y3715*
X4160Y3706*
X4153Y3694*
X4151Y3685*
X4190*
Y3724*
G37*
G36*
X3209D02*
Y3685D01*
X3248*
X3246Y3694*
X3239Y3706*
X3230Y3715*
X3219Y3721*
X3209Y3724*
G37*
G36*
X3190D02*
X3180Y3721D01*
X3169Y3715*
X3160Y3706*
X3153Y3694*
X3151Y3685*
X3190*
Y3724*
G37*
G36*
X4248Y3665D02*
X4209D01*
Y3627*
X4219Y3629*
X4230Y3636*
X4239Y3645*
X4246Y3656*
X4248Y3665*
G37*
G36*
X4190D02*
X4151D01*
X4153Y3656*
X4160Y3645*
X4169Y3636*
X4180Y3629*
X4190Y3627*
Y3665*
G37*
G36*
X3248D02*
X3209D01*
Y3627*
X3219Y3629*
X3230Y3636*
X3239Y3645*
X3246Y3656*
X3248Y3665*
G37*
G36*
X3190D02*
X3151D01*
X3153Y3656*
X3160Y3645*
X3169Y3636*
X3180Y3629*
X3190Y3627*
Y3665*
G37*
G36*
X2872Y3691D02*
X2837D01*
Y3621*
X2872*
Y3691*
G37*
G36*
X4494Y3565D02*
X4465D01*
Y3534*
X4494*
Y3565*
G37*
G36*
X4205Y3620D02*
X4194D01*
X4182Y3617*
X4172Y3611*
X4164Y3603*
X4158Y3592*
X4155Y3581*
Y3569*
X4158Y3558*
X4164Y3548*
X4172Y3540*
X4182Y3534*
X4194Y3531*
X4205*
X4217Y3534*
X4227Y3540*
X4235Y3548*
X4241Y3558*
X4244Y3569*
Y3581*
X4241Y3592*
X4235Y3603*
X4227Y3611*
X4217Y3617*
X4205Y3620*
G37*
G36*
X3205D02*
X3194D01*
X3182Y3617*
X3172Y3611*
X3164Y3603*
X3158Y3592*
X3155Y3581*
Y3569*
X3158Y3558*
X3164Y3548*
X3172Y3540*
X3182Y3534*
X3194Y3531*
X3205*
X3217Y3534*
X3227Y3540*
X3235Y3548*
X3241Y3558*
X3244Y3569*
Y3581*
X3241Y3592*
X3235Y3603*
X3227Y3611*
X3217Y3617*
X3205Y3620*
G37*
G36*
X4494Y3515D02*
X4465D01*
Y3484*
X4494*
Y3515*
G37*
G36*
X2877Y3483D02*
X2864D01*
Y3453*
X2877*
Y3483*
G37*
G36*
X2845D02*
X2832D01*
Y3453*
X2845*
Y3483*
G37*
G36*
X4205Y3520D02*
X4194D01*
X4182Y3517*
X4172Y3511*
X4164Y3503*
X4158Y3492*
X4155Y3481*
Y3469*
X4158Y3458*
X4164Y3448*
X4172Y3440*
X4182Y3434*
X4194Y3431*
X4205*
X4217Y3434*
X4227Y3440*
X4235Y3448*
X4241Y3458*
X4244Y3469*
Y3481*
X4241Y3492*
X4235Y3503*
X4227Y3511*
X4217Y3517*
X4205Y3520*
G37*
G36*
X3205D02*
X3194D01*
X3182Y3517*
X3172Y3511*
X3164Y3503*
X3158Y3492*
X3155Y3481*
Y3469*
X3158Y3458*
X3164Y3448*
X3172Y3440*
X3182Y3434*
X3194Y3431*
X3205*
X3217Y3434*
X3227Y3440*
X3235Y3448*
X3241Y3458*
X3244Y3469*
Y3481*
X3241Y3492*
X3235Y3503*
X3227Y3511*
X3217Y3517*
X3205Y3520*
G37*
G36*
X2877Y3433D02*
X2864D01*
Y3403*
X2877*
Y3433*
G37*
G36*
X2845D02*
X2832D01*
Y3403*
X2845*
Y3433*
G37*
G36*
X4833Y3550D02*
X4786D01*
X4770Y3548*
X4755Y3544*
X4741Y3536*
X4729Y3526*
X4719Y3514*
X4712Y3500*
X4707Y3485*
X4706Y3470*
X4707Y3454*
X4712Y3439*
X4719Y3425*
X4729Y3413*
X4741Y3403*
X4755Y3395*
X4770Y3391*
X4786Y3389*
X4833*
X4849Y3391*
X4864Y3395*
X4878Y3403*
X4890Y3413*
X4900Y3425*
X4907Y3439*
X4912Y3454*
X4913Y3470*
X4912Y3485*
X4907Y3500*
X4900Y3514*
X4890Y3526*
X4878Y3536*
X4864Y3544*
X4849Y3548*
X4833Y3550*
G37*
G36*
X4205Y3420D02*
X4194D01*
X4182Y3417*
X4172Y3411*
X4164Y3403*
X4158Y3392*
X4155Y3381*
Y3369*
X4158Y3358*
X4164Y3348*
X4172Y3340*
X4182Y3334*
X4194Y3331*
X4205*
X4217Y3334*
X4227Y3340*
X4235Y3348*
X4241Y3358*
X4244Y3369*
Y3381*
X4241Y3392*
X4235Y3403*
X4227Y3411*
X4217Y3417*
X4205Y3420*
G37*
G36*
X3205D02*
X3194D01*
X3182Y3417*
X3172Y3411*
X3164Y3403*
X3158Y3392*
X3155Y3381*
Y3369*
X3158Y3358*
X3164Y3348*
X3172Y3340*
X3182Y3334*
X3194Y3331*
X3205*
X3217Y3334*
X3227Y3340*
X3235Y3348*
X3241Y3358*
X3244Y3369*
Y3381*
X3241Y3392*
X3235Y3403*
X3227Y3411*
X3217Y3417*
X3205Y3420*
G37*
G36*
X2864Y3318D02*
Y3294D01*
X2888*
X2887Y3298*
X2883Y3306*
X2876Y3313*
X2868Y3317*
X2864Y3318*
G37*
G36*
X2888Y3275D02*
X2864D01*
Y3251*
X2868Y3252*
X2876Y3256*
X2883Y3263*
X2887Y3271*
X2888Y3275*
G37*
G36*
X3022Y3478D02*
X2987D01*
Y3408*
X3004*
X3047Y3365*
Y3245*
X3029*
Y3250*
X2999*
Y3210*
Y3169*
X3029*
Y3174*
X3047*
Y3119*
X3021Y3093*
X3020Y3094*
X2990*
X2982Y3092*
X2975Y3088*
X2971Y3081*
X2969Y3073*
Y3043*
X2971Y3035*
X2975Y3029*
X2982Y3024*
X2990Y3023*
X2993*
X2993Y3018*
X2989Y3017*
X2980Y3011*
X2972Y3004*
X2967Y2995*
X2966Y2989*
X3043*
X3042Y2995*
X3037Y3004*
X3029Y3011*
X3020Y3017*
X3016Y3018*
X3016Y3023*
X3020*
X3027Y3024*
X3034Y3029*
X3038Y3035*
X3040Y3043*
Y3073*
X3040Y3075*
X3069Y3104*
X3072Y3109*
X3073Y3114*
Y3174*
X3094*
Y3245*
X3073*
Y3370*
X3072Y3375*
X3069Y3379*
X3022Y3426*
Y3478*
G37*
G36*
X4205Y3320D02*
X4194D01*
X4182Y3317*
X4172Y3311*
X4164Y3303*
X4158Y3292*
X4155Y3281*
Y3269*
X4158Y3258*
X4164Y3248*
X4172Y3240*
X4182Y3234*
X4194Y3231*
X4205*
X4217Y3234*
X4227Y3240*
X4235Y3248*
X4241Y3258*
X4244Y3269*
Y3281*
X4241Y3292*
X4235Y3303*
X4227Y3311*
X4217Y3317*
X4205Y3320*
G37*
G36*
X3205D02*
X3194D01*
X3182Y3317*
X3172Y3311*
X3164Y3303*
X3158Y3292*
X3155Y3281*
Y3269*
X3158Y3258*
X3164Y3248*
X3172Y3240*
X3182Y3234*
X3194Y3231*
X3205*
X3217Y3234*
X3227Y3240*
X3235Y3248*
X3241Y3258*
X3244Y3269*
Y3281*
X3241Y3292*
X3235Y3303*
X3227Y3311*
X3217Y3317*
X3205Y3320*
G37*
G36*
X4205Y3220D02*
X4194D01*
X4182Y3217*
X4172Y3211*
X4164Y3203*
X4158Y3192*
X4155Y3181*
Y3169*
X4158Y3158*
X4164Y3148*
X4172Y3140*
X4182Y3134*
X4194Y3131*
X4205*
X4217Y3134*
X4227Y3140*
X4235Y3148*
X4241Y3158*
X4244Y3169*
Y3181*
X4241Y3192*
X4235Y3203*
X4227Y3211*
X4217Y3217*
X4205Y3220*
G37*
G36*
X3205D02*
X3194D01*
X3182Y3217*
X3172Y3211*
X3164Y3203*
X3158Y3192*
X3155Y3181*
Y3169*
X3158Y3158*
X3164Y3148*
X3172Y3140*
X3182Y3134*
X3194Y3131*
X3205*
X3217Y3134*
X3227Y3140*
X3235Y3148*
X3241Y3158*
X3244Y3169*
Y3181*
X3241Y3192*
X3235Y3203*
X3227Y3211*
X3217Y3217*
X3205Y3220*
G37*
G36*
X4205Y3120D02*
X4194D01*
X4182Y3117*
X4172Y3111*
X4164Y3103*
X4158Y3092*
X4155Y3081*
Y3069*
X4158Y3058*
X4164Y3048*
X4172Y3040*
X4182Y3034*
X4194Y3031*
X4205*
X4217Y3034*
X4227Y3040*
X4235Y3048*
X4241Y3058*
X4244Y3069*
Y3081*
X4241Y3092*
X4235Y3103*
X4227Y3111*
X4217Y3117*
X4205Y3120*
G37*
G36*
X3205D02*
X3194D01*
X3182Y3117*
X3172Y3111*
X3164Y3103*
X3158Y3092*
X3155Y3081*
Y3077*
X3151*
X3147Y3077*
X3144Y3074*
X3082Y3012*
X3079Y3009*
X3078Y3005*
Y2719*
X3040Y2681*
X3035Y2682*
X3032Y2686*
X3026Y2692*
X3018Y2697*
X3009Y2699*
X3000*
X2991Y2697*
X2983Y2692*
X2977Y2686*
X2972Y2678*
X2970Y2669*
Y2660*
X2972Y2651*
X2977Y2643*
X2983Y2637*
X2991Y2632*
X3000Y2630*
X3009*
X3018Y2632*
X3026Y2637*
X3032Y2643*
X3037Y2651*
X3039Y2658*
X3044*
X3048Y2659*
X3052Y2661*
X3097Y2707*
X3100Y2710*
X3101Y2715*
Y3000*
X3155Y3055*
X3161Y3054*
X3164Y3048*
X3172Y3040*
X3182Y3034*
X3194Y3031*
X3205*
X3217Y3034*
X3227Y3040*
X3235Y3048*
X3241Y3058*
X3244Y3069*
Y3081*
X3241Y3092*
X3235Y3103*
X3227Y3111*
X3217Y3117*
X3205Y3120*
G37*
G36*
X4205Y3020D02*
X4194D01*
X4182Y3017*
X4172Y3011*
X4164Y3003*
X4158Y2992*
X4155Y2981*
Y2969*
X4158Y2958*
X4164Y2948*
X4172Y2940*
X4182Y2934*
X4194Y2931*
X4205*
X4217Y2934*
X4227Y2940*
X4235Y2948*
X4241Y2958*
X4244Y2969*
Y2981*
X4241Y2992*
X4235Y3003*
X4227Y3011*
X4217Y3017*
X4205Y3020*
G37*
G36*
X3205D02*
X3194D01*
X3182Y3017*
X3172Y3011*
X3164Y3003*
X3158Y2992*
X3155Y2981*
Y2977*
X3151*
X3147Y2977*
X3144Y2974*
X3117Y2947*
X3114Y2944*
X3113Y2940*
Y2689*
X3031Y2607*
X3026Y2612*
X3018Y2617*
X3009Y2619*
X3000*
X2991Y2617*
X2983Y2612*
X2977Y2606*
X2972Y2598*
X2970Y2589*
Y2580*
X2972Y2571*
X2977Y2563*
X2983Y2557*
X2991Y2552*
X3000Y2550*
X3009*
X3018Y2552*
X3026Y2557*
X3032Y2563*
X3037Y2571*
X3039Y2580*
Y2585*
X3042Y2586*
X3132Y2677*
X3135Y2680*
X3136Y2685*
Y2935*
X3155Y2955*
X3161Y2954*
X3164Y2948*
X3172Y2940*
X3182Y2934*
X3194Y2931*
X3205*
X3217Y2934*
X3227Y2940*
X3235Y2948*
X3241Y2958*
X3244Y2969*
Y2981*
X3241Y2992*
X3235Y3003*
X3227Y3011*
X3217Y3017*
X3205Y3020*
G37*
G36*
X3043Y2970D02*
X2966D01*
X2967Y2964*
X2972Y2955*
X2980Y2947*
X2989Y2942*
X2997Y2940*
Y2935*
X2991Y2933*
X2983Y2929*
X2977Y2922*
X2972Y2914*
X2970Y2905*
Y2896*
X2972Y2887*
X2977Y2879*
X2983Y2873*
X2991Y2868*
X3000Y2866*
X3009*
X3018Y2868*
X3026Y2873*
X3032Y2879*
X3037Y2887*
X3039Y2896*
Y2905*
X3037Y2914*
X3032Y2922*
X3026Y2929*
X3018Y2933*
X3012Y2935*
Y2940*
X3020Y2942*
X3029Y2947*
X3037Y2955*
X3042Y2964*
X3043Y2970*
G37*
G36*
X4494Y2895D02*
X4465D01*
Y2864*
X4494*
Y2895*
G37*
G36*
X4205Y2920D02*
X4194D01*
X4182Y2917*
X4172Y2911*
X4164Y2903*
X4158Y2892*
X4155Y2881*
Y2869*
X4158Y2858*
X4164Y2848*
X4172Y2840*
X4182Y2834*
X4194Y2831*
X4205*
X4217Y2834*
X4227Y2840*
X4235Y2848*
X4241Y2858*
X4244Y2869*
Y2881*
X4241Y2892*
X4235Y2903*
X4227Y2911*
X4217Y2917*
X4205Y2920*
G37*
G36*
X3205D02*
X3194D01*
X3182Y2917*
X3172Y2911*
X3164Y2903*
X3158Y2892*
X3155Y2881*
Y2869*
X3158Y2858*
X3164Y2848*
X3172Y2840*
X3182Y2834*
X3194Y2831*
X3205*
X3217Y2834*
X3227Y2840*
X3235Y2848*
X3241Y2858*
X3244Y2869*
Y2881*
X3241Y2892*
X3235Y2903*
X3227Y2911*
X3217Y2917*
X3205Y2920*
G37*
G36*
X4494Y2845D02*
X4465D01*
Y2814*
X4494*
Y2845*
G37*
G36*
X4205Y2820D02*
X4194D01*
X4182Y2817*
X4172Y2811*
X4164Y2803*
X4158Y2792*
X4155Y2781*
Y2769*
X4158Y2758*
X4164Y2748*
X4172Y2740*
X4182Y2734*
X4194Y2731*
X4205*
X4217Y2734*
X4227Y2740*
X4235Y2748*
X4241Y2758*
X4244Y2769*
Y2781*
X4241Y2792*
X4235Y2803*
X4227Y2811*
X4217Y2817*
X4205Y2820*
G37*
G36*
X3205D02*
X3194D01*
X3182Y2817*
X3172Y2811*
X3164Y2803*
X3158Y2792*
X3155Y2781*
Y2769*
X3158Y2758*
X3164Y2748*
X3172Y2740*
X3182Y2734*
X3194Y2731*
X3205*
X3217Y2734*
X3227Y2740*
X3235Y2748*
X3241Y2758*
X3244Y2769*
Y2781*
X3241Y2792*
X3235Y2803*
X3227Y2811*
X3217Y2817*
X3205Y2820*
G37*
G36*
X3009Y2778D02*
X3000D01*
X2991Y2776*
X2983Y2771*
X2977Y2765*
X2972Y2757*
X2970Y2748*
Y2739*
X2972Y2730*
X2977Y2722*
X2983Y2715*
X2991Y2711*
X3000Y2708*
X3009*
X3018Y2711*
X3026Y2715*
X3032Y2722*
X3037Y2730*
X3039Y2739*
Y2748*
X3037Y2757*
X3032Y2765*
X3026Y2771*
X3018Y2776*
X3009Y2778*
G37*
G36*
X4205Y2720D02*
X4194D01*
X4182Y2717*
X4172Y2711*
X4164Y2703*
X4158Y2692*
X4155Y2681*
Y2669*
X4158Y2658*
X4164Y2648*
X4172Y2640*
X4182Y2634*
X4194Y2631*
X4205*
X4217Y2634*
X4227Y2640*
X4235Y2648*
X4241Y2658*
X4244Y2669*
Y2681*
X4241Y2692*
X4235Y2703*
X4227Y2711*
X4217Y2717*
X4205Y2720*
G37*
G36*
X3205D02*
X3194D01*
X3182Y2717*
X3172Y2711*
X3164Y2703*
X3158Y2692*
X3155Y2681*
Y2669*
X3158Y2658*
X3164Y2648*
X3172Y2640*
X3182Y2634*
X3194Y2631*
X3205*
X3217Y2634*
X3227Y2640*
X3235Y2648*
X3241Y2658*
X3244Y2669*
Y2681*
X3241Y2692*
X3235Y2703*
X3227Y2711*
X3217Y2717*
X3205Y2720*
G37*
G36*
X2834Y2699D02*
X2825D01*
X2816Y2697*
X2808Y2692*
X2802Y2686*
X2797Y2678*
X2795Y2669*
Y2660*
X2797Y2651*
X2802Y2643*
X2808Y2637*
X2816Y2632*
X2825Y2630*
X2834*
X2843Y2632*
X2851Y2637*
X2857Y2643*
X2862Y2651*
X2864Y2660*
Y2669*
X2862Y2678*
X2857Y2686*
X2851Y2692*
X2843Y2697*
X2834Y2699*
G37*
G36*
Y2619D02*
X2825D01*
X2816Y2617*
X2808Y2612*
X2802Y2606*
X2797Y2598*
X2795Y2589*
Y2580*
X2797Y2571*
X2802Y2563*
X2808Y2557*
X2816Y2552*
X2825Y2550*
X2834*
X2843Y2552*
X2851Y2557*
X2857Y2563*
X2862Y2571*
X2864Y2580*
Y2589*
X2862Y2598*
X2857Y2606*
X2851Y2612*
X2843Y2617*
X2834Y2619*
G37*
G36*
X4833Y2700D02*
X4786D01*
X4770Y2698*
X4755Y2694*
X4741Y2686*
X4729Y2676*
X4719Y2664*
X4712Y2650*
X4707Y2635*
X4706Y2620*
X4707Y2604*
X4712Y2589*
X4719Y2575*
X4729Y2563*
X4741Y2553*
X4755Y2545*
X4770Y2541*
X4786Y2539*
X4833*
X4849Y2541*
X4864Y2545*
X4878Y2553*
X4890Y2563*
X4900Y2575*
X4907Y2589*
X4912Y2604*
X4913Y2620*
X4912Y2635*
X4907Y2650*
X4900Y2664*
X4890Y2676*
X4878Y2686*
X4864Y2694*
X4849Y2698*
X4833Y2700*
G37*
G36*
X3205Y2620D02*
X3194D01*
X3182Y2617*
X3172Y2611*
X3164Y2603*
X3158Y2592*
X3155Y2581*
Y2569*
X3158Y2558*
X3164Y2548*
X3172Y2540*
X3182Y2534*
X3194Y2531*
X3205*
X3217Y2534*
X3227Y2540*
X3235Y2548*
X3241Y2558*
X3244Y2569*
Y2581*
X3241Y2592*
X3235Y2603*
X3227Y2611*
X3217Y2617*
X3205Y2620*
G37*
G36*
X4688Y2459D02*
X4681D01*
X4673Y2457*
X4666Y2453*
X4661Y2448*
X4657Y2441*
X4655Y2433*
Y2426*
X4657Y2418*
X4661Y2411*
X4666Y2406*
X4671Y2402*
Y2330*
X4654Y2313*
X4623*
Y2328*
X4556*
Y2313*
X4473*
Y2329*
X4406*
Y2272*
X4473*
Y2287*
X4556*
Y2271*
X4623*
Y2286*
X4660*
X4664Y2287*
X4669Y2290*
X4694Y2315*
X4697Y2320*
X4698Y2325*
Y2402*
X4703Y2406*
X4708Y2411*
X4712Y2418*
X4714Y2426*
Y2433*
X4712Y2441*
X4708Y2448*
X4703Y2453*
X4696Y2457*
X4688Y2459*
G37*
G36*
X4962Y2270D02*
X4947D01*
X4932Y2267*
X4919Y2262*
X4906Y2253*
X4896Y2243*
X4887Y2230*
X4882Y2217*
X4879Y2202*
Y2187*
X4882Y2172*
X4887Y2159*
X4896Y2146*
X4906Y2136*
X4919Y2127*
X4932Y2122*
X4947Y2119*
X4962*
X4977Y2122*
X4990Y2127*
X5003Y2136*
X5013Y2146*
X5022Y2159*
X5027Y2172*
X5030Y2187*
Y2202*
X5027Y2217*
X5022Y2230*
X5013Y2243*
X5003Y2253*
X4990Y2262*
X4977Y2267*
X4962Y2270*
G37*
G36*
X2827D02*
X2812D01*
X2797Y2267*
X2784Y2262*
X2771Y2253*
X2761Y2243*
X2752Y2230*
X2747Y2217*
X2744Y2202*
Y2187*
X2747Y2172*
X2752Y2159*
X2761Y2146*
X2771Y2136*
X2784Y2127*
X2797Y2122*
X2812Y2119*
X2827*
X2842Y2122*
X2855Y2127*
X2868Y2136*
X2878Y2146*
X2887Y2159*
X2892Y2172*
X2895Y2187*
Y2202*
X2892Y2217*
X2887Y2230*
X2878Y2243*
X2868Y2253*
X2855Y2262*
X2842Y2267*
X2827Y2270*
G37*
%LNecu_freio_2024_equipe_imperador_copper_signal_top-3*%
%LPD*%
G36*
X2795Y3921D02*
Y3921D01*
X2782Y3907*
X2779Y3904*
X2778Y3900*
Y3200*
X2779Y3195*
X2782Y3192*
X2868Y3105*
Y3080*
X2863Y3080*
X2863Y3081*
X2859Y3088*
X2852Y3092*
X2845Y3094*
X2815*
X2813Y3093*
X2768Y3139*
Y3908*
X2772Y3912*
X2774Y3915*
X2781Y3917*
X2788Y3921*
X2789Y3922*
X2795Y3921*
G37*
G54D10*
X4142Y2370D02*
D01*
X4143Y2366*
X4144Y2362*
X4145Y2358*
X4147Y2354*
X4148Y2350*
X4150Y2347*
X4152Y2343*
X4155Y2340*
X4157Y2337*
X4160Y2334*
X4163Y2331*
X4167Y2328*
X4170Y2326*
X4174Y2324*
X4177Y2322*
X4181Y2321*
X4185Y2320*
X4189Y2319*
X4193Y2318*
X4197Y2318*
X4201Y2317*
X4206Y2318*
X4210Y2318*
X4214Y2319*
X4218Y2320*
X4222Y2321*
X4226Y2323*
X4229Y2324*
X4233Y2327*
X4236Y2329*
X4239Y2331*
X4242Y2334*
X4245Y2337*
X4248Y2340*
X4250Y2344*
X4253Y2347*
X4254Y2351*
X4256Y2355*
X4257Y2359*
X4259Y2362*
X4259Y2367*
X4260Y2367*
X4313Y2665D02*
D01*
X4313Y2665*
X4313Y2665*
X4313Y2665*
X4313Y2665*
X4313Y2665*
X4260Y4605D02*
D01*
X4259Y4606*
X4259Y4606*
X4258Y4607*
X4257Y4607*
X4257Y4608*
X4256Y4608*
X4255Y4609*
X4254Y4609*
X4254Y4609*
X4253Y4609*
X4252Y4609*
X4251Y4609*
X4250Y4610*
X4560Y4213D02*
D01*
X4501Y4293*
X4442Y4372*
X4382Y4450*
X4321Y4528*
X4260Y4605*
X2955Y3480D02*
X3105Y3630D01*
Y4233*
X2955Y3443D02*
Y3480D01*
X4560Y2715D02*
Y4213D01*
X4549Y2704D02*
X4560Y2715D01*
X4502Y2704D02*
X4549D01*
X4104Y2722D02*
X4142Y2370D01*
X4104Y2727D02*
X4110Y2735D01*
X4104Y2722D02*
Y2727D01*
X4260Y2367D02*
Y2617D01*
X4306Y2663*
X4313Y2665*
X4313Y2665D02*
X4337D01*
X2810Y3960D02*
X2910Y4060D01*
Y4265*
X2810Y3920D02*
Y3960D01*
X3005Y3770D02*
Y3826D01*
X2941Y3990D02*
X2985Y3946D01*
Y3846D02*
Y3946D01*
Y3846D02*
X3005Y3826D01*
Y3656D02*
Y3770D01*
X2875Y3810D02*
X2885Y3820D01*
Y3935D02*
X2905Y3955D01*
X2885Y3820D02*
Y3935D01*
X2875Y3724D02*
Y3810D01*
X2814Y3717D02*
X2821Y3724D01*
X2875*
X2814Y3235D02*
Y3717D01*
X2901Y3660D02*
Y3697D01*
X2875Y3724D02*
X2901Y3697D01*
Y3660D02*
X2905Y3656D01*
X2922Y3782D02*
Y3810D01*
Y3782D02*
X2930Y3775D01*
X2910Y3823D02*
X2922Y3810D01*
X2814Y3235D02*
X2910Y3140D01*
X2940Y3500D02*
X3065Y3625D01*
Y4470*
X3134Y4540*
X2955Y3656D02*
Y3739D01*
X2930Y3764D02*
Y3775D01*
Y3764D02*
X2955Y3739D01*
X2910Y3823D02*
Y3888D01*
X2908Y3446D02*
Y3483D01*
X2925Y3500*
X2940*
X3105Y4233D02*
X3218Y4346D01*
X2981Y4171D02*
X3011D01*
X3015Y4175*
X2955Y3317D02*
Y3443D01*
X2900Y3438D02*
X2908Y3446D01*
X2790Y3200D02*
X2880Y3110D01*
X2790Y3900D02*
X2810Y3920D01*
X2790Y3200D02*
Y3900D01*
X2904Y3990D02*
X2941D01*
X2860Y3945D02*
X2904Y3990D01*
X2939Y3301D02*
X2955Y3317D01*
X2939Y2888D02*
Y3301D01*
X3044Y2669D02*
X3090Y2715D01*
Y3005D02*
X3151Y3066D01*
X3090Y2715D02*
Y3005D01*
X3125Y2940D02*
X3151Y2966D01*
X3034Y2594D02*
X3125Y2685D01*
Y2940*
X3005Y2585D02*
X3014Y2594D01*
X3034*
X2910Y2823D02*
Y3140D01*
X2830Y2743D02*
X2910Y2823D01*
X2880Y2872D02*
Y3110D01*
X2830Y2822D02*
X2880Y2872D01*
X2960Y4150D02*
X2981Y4171D01*
X2960Y4101D02*
Y4150D01*
X2940Y3955D02*
X2960Y3935D01*
X2905Y3955D02*
X2940D01*
X2960Y3888D02*
Y3935D01*
X2860Y3888D02*
Y3945D01*
X3995Y4610D02*
X4250D01*
X3965Y4580D02*
X3995Y4610D01*
X3965Y4450D02*
Y4580D01*
Y4450D02*
X4035Y4380D01*
X2900Y3355D02*
Y3438D01*
X2895Y3350D02*
X2900Y3355D01*
X3151Y3066D02*
X3191D01*
X3200Y3075*
X3005Y2665D02*
X3009Y2669D01*
X3044*
X3151Y2966D02*
X3191D01*
X3200Y2975*
X2939Y2888D02*
X3005Y2822D01*
X3218Y4346D02*
Y4458D01*
X3300Y4540*
G54D11*
X4435Y4030D03*
Y4114D03*
G54D12*
X3010Y4101D03*
X2960D03*
X2910D03*
X2860D03*
Y3888D03*
X2910D03*
X2960D03*
X3010D03*
X2855Y3443D03*
X2905D03*
X2955D03*
X3005D03*
Y3656D03*
X2955D03*
X2905D03*
X2855D03*
G54D13*
X4590Y2378D03*
Y2300D03*
X4440Y2300D03*
Y2379D03*
G54D14*
X4502Y2645D03*
G54D15*
X4502Y2665D03*
Y2685D03*
Y2704D03*
Y2724D03*
X4337D03*
Y2704D03*
Y2685D03*
Y2665D03*
Y2645D03*
G54D16*
X4455Y3075D03*
X4384D03*
X3060Y3210D03*
X2989D03*
X4384Y3525D03*
X4455D03*
Y2855D03*
X4384D03*
G54D17*
X4590Y2300D02*
X4660D01*
X4581D02*
X4590D01*
X4580Y2300D02*
X4581Y2300D01*
X4660D02*
X4685Y2325D01*
Y2430*
X4295Y3830D02*
X4392Y3732D01*
X4090Y3830D02*
X4295D01*
X4389Y3525D02*
Y3655D01*
X4035Y3775D02*
X4090Y3830D01*
X3200Y3775D02*
X4035D01*
X4384Y3525D02*
X4389Y3520D01*
X4384Y3075D02*
X4389Y3079D01*
Y3520*
X4384Y2855D02*
Y3074D01*
X2755Y3913D02*
X2763Y3922D01*
X2755Y3133D02*
X2830Y3058D01*
X2755Y3133D02*
Y3913D01*
X2763Y3922D02*
Y3938D01*
X2770Y3945*
X2813Y4101D02*
X2860D01*
X2775Y4060D02*
Y4063D01*
X2813Y4101*
X3060Y3114D02*
Y3210D01*
Y3370*
X4260Y3785D02*
X4389Y3655D01*
X4440Y2300D02*
X4580D01*
X4209Y3785D02*
X4260D01*
X4200Y3775D02*
X4209Y3785D01*
X3005Y3058D02*
X3060Y3114D01*
X3005Y3426D02*
X3060Y3370D01*
X3005Y3426D02*
Y3443D01*
G54D18*
X4535Y2756D02*
Y3660D01*
X4502Y2724D02*
X4535Y2756D01*
X4367Y2688D02*
X4463Y2785D01*
X4500D02*
X4515Y2799D01*
Y3060*
X4500Y3075D02*
X4515Y3060D01*
X4463Y2785D02*
X4500D01*
X4455Y3075D02*
X4500D01*
X4390Y2664D02*
X4585Y2469D01*
X4338Y2664D02*
X4390D01*
X4585Y2383D02*
Y2469D01*
X4340Y3855D02*
X4535Y3660D01*
X4341Y2688D02*
X4367D01*
X4337Y2685D02*
X4341Y2688D01*
X4340Y3855D02*
Y4240D01*
X4200Y4380D02*
X4340Y4240D01*
X4337Y2557D02*
Y2645D01*
Y2557D02*
X4440Y2455D01*
Y2379D02*
Y2455D01*
X4585Y2383D02*
X4590Y2378D01*
X4337Y2665D02*
X4338Y2664D01*
X4345Y2355D02*
X4369Y2379D01*
X4345Y2235D02*
Y2355D01*
X4369Y2379D02*
X4440D01*
G54D19*
X4529Y4545D02*
X4625Y4450D01*
Y4220D02*
X4855Y3990D01*
X4625Y4220D02*
Y4450D01*
X4855Y3925D02*
Y3990D01*
X4435Y3947D02*
Y4030D01*
Y4114D02*
Y4293D01*
X4035Y4545D02*
X4117Y4463D01*
X4265*
X4435Y4293*
G54D20*
X3200Y3775D03*
G54D21*
X3200Y3675D03*
Y3575D03*
Y3475D03*
Y3375D03*
Y3275D03*
Y3175D03*
Y3075D03*
Y2975D03*
Y2875D03*
Y2775D03*
Y2675D03*
Y2575D03*
Y2475D03*
Y2375D03*
X4200Y3775D03*
Y3675D03*
Y3575D03*
Y3475D03*
Y3375D03*
Y3275D03*
Y3175D03*
Y3075D03*
Y2975D03*
Y2875D03*
Y2775D03*
Y2675D03*
Y2575D03*
Y2475D03*
Y2375D03*
X4035Y4380D03*
X4200Y4545D03*
Y4380D03*
X3134Y4374D03*
X3300Y4540D03*
Y4374D03*
X4529Y4380D03*
X4695Y4545D03*
Y4380D03*
G54D22*
X3216Y2240D03*
X4181D03*
Y4089D03*
X3216D03*
G54D23*
X4810Y2620D03*
Y3470D03*
G54D24*
X4855Y3925D03*
X4755D03*
X3005Y2585D03*
Y2665D03*
Y2743D03*
Y2822D03*
Y2901D03*
Y2979D03*
X2830Y2585D03*
Y2665D03*
Y2743D03*
Y2822D03*
Y2901D03*
Y2979D03*
G54D25*
X3005Y3058D03*
X2830D03*
G54D26*
X4035Y4545D03*
X3134Y4540D03*
X4529Y4545D03*
G54D27*
X4955Y4630D03*
Y2195D03*
X2820D03*
Y4630D03*
G54D28*
X2855Y3285D03*
X4685Y2430D03*
X4392Y3732D03*
X4110Y2735D03*
X2770Y3945D03*
X2775Y4060D03*
X2930Y3775D03*
X3005Y3770D03*
X3015Y4175D03*
X2910Y4265D03*
X4345Y2235D03*
X2895Y3350D03*
X4435Y3947D03*
M02*